<svg t="1774362381088" class="icon" viewBox="0 0 1024 1024" version="1.1" xmlns="http://www.w3.org/2000/svg" p-id="11962" width="200" height="200"><path d="M608 85.333333a128 128 0 0 1 110.869333 192.021334L874.666667 277.333333a64 64 0 0 1 64 64v128a64 64 0 0 1-60.245334 63.893334L874.666667 533.333333v341.333334a64 64 0 0 1-64 64H213.333333a64 64 0 0 1-64-64V533.333333a64 64 0 0 1-64-64v-128a64 64 0 0 1 64-64l155.797334 0.021334A128 128 0 0 1 512 128.661333 127.701333 127.701333 0 0 1 608 85.333333z m-128 448H213.333333v341.333334h266.666667V533.333333zM810.666667 533.333333H544v341.333334H810.666667V533.333333z m-330.666667-192H149.333333v128h330.666667v-128zM874.666667 341.333333H544v128H874.666667v-128zM416 149.333333a64 64 0 0 0 0 128h64v-64a64 64 0 0 0-64-64z m192 0a64 64 0 0 0-63.893333 60.245334L544 213.333333v64h64a64 64 0 0 0 0-128z" fill="#000000" p-id="11963"></path></svg>