<svg t="1774498787119" class="icon" viewBox="0 0 1024 1024" version="1.1" xmlns="http://www.w3.org/2000/svg" p-id="77151" width="200" height="200"><path d="M511.838 472.601c-173.757 0-358.398-56-358.398-159.679 0-103.684 184.641-159.762 358.398-159.762 173.761 0 358.402 56 358.402 159.68 0 103.679-184.64 159.761-358.402 159.761z m0-265.839c-188.718 0-304.636 61.839-304.636 106.078 0 44.242 115.918 106.16 304.636 106.16 188.722 0 304.64-61.84 304.64-106.16 0.001-44.321-115.917-106.078-304.64-106.078z m0 0" fill="#60A9D1" p-id="77152"></path><path d="M511.838 594.039c-172.636 0-358.398-40.56-358.398-129.68 0-14.801 12.078-26.801 26.879-26.801 14.801 0 26.883 12 26.883 26.801 0 22.723 103.679 76.082 304.636 76.082 200.96 0 304.64-53.358 304.64-76.082 0-14.801 12-26.801 26.883-26.801 14.797 0 26.879 12 26.879 26.801 0 89.12-185.761 129.68-358.402 129.68z m0 0" fill="#A6CBDD" p-id="77153"></path><path d="M511.838 721.719c-172.636 0-358.398-40.559-358.398-129.68 0-14.801 12.078-26.801 26.879-26.801 14.801 0 26.883 12 26.883 26.801 0 22.723 103.679 76.082 304.636 76.082 200.96 0 304.64-53.359 304.64-76.082 0-14.801 12-26.801 26.883-26.801 14.797 0 26.879 12 26.879 26.801 0 89.121-185.761 129.68-358.402 129.68z m0 0" fill="#60A9D1" p-id="77154"></path><path d="M511.838 869.961c-172.636 0-358.398-40.563-358.398-129.68v-24.402c0-14.797 12.078-26.797 26.879-26.797 14.801 0 26.883 12 26.883 26.797v24.402c0 22.719 103.679 76.078 304.636 76.078 200.96 0 304.64-53.359 304.64-76.078v-24.402c0-14.797 12-26.797 26.883-26.797 14.797 0 26.879 12 26.879 26.797v24.402c0 89.116-185.761 129.68-358.402 129.68z m0 0" fill="#A6CBDD" p-id="77155"></path></svg>