<svg t="1774500878052" class="icon" viewBox="0 0 1024 1024" version="1.1" xmlns="http://www.w3.org/2000/svg" p-id="82338" width="200" height="200"><path d="M839.68 593.92V512H921.6v81.92h-81.92z m0-491.52H921.6v327.68h-81.92V102.4z m-163.84 163.84h81.92v327.68h-81.92V266.24z m0-163.84h81.92v81.92h-81.92V102.4zM921.6 921.6h-245.76v-245.76H921.6V921.6z m-81.92-163.84h-81.92v81.92h81.92v-81.92zM266.24 839.68h327.68V921.6H266.24v-81.92z m245.76-163.84h81.92v81.92H512v-81.92zM102.4 102.4h491.52v491.52H102.4V102.4z m81.92 409.6H512V184.32H184.32V512z m81.92-245.76h163.84v163.84H266.24V266.24z m163.84 491.52H102.4v-81.92h327.68v81.92zM184.32 921.6H102.4v-81.92h81.92V921.6z" fill="#FFFFFF" p-id="82339"></path></svg>