<svg t="1774362323647" class="icon" viewBox="0 0 1024 1024" version="1.1" xmlns="http://www.w3.org/2000/svg" p-id="9838" width="200" height="200"><path d="M512 950.852267c242.346667 0 438.852267-196.471467 438.852267-438.852267 0-242.346667-196.471467-438.852267-438.852267-438.852267C269.653333 73.147733 73.147733 269.6192 73.147733 512c0 242.346667 196.471467 438.852267 438.852267 438.852267zM512 1024C229.239467 1024 0 794.760533 0 512 0 229.239467 229.239467 0 512 0c282.760533 0 512 229.239467 512 512 0 282.760533-229.239467 512-512 512zM475.4432 219.4432c20.1728 0 36.5568 16.384 36.5568 36.5568V512h256a36.5568 36.5568 0 1 1 0 73.147733h-329.147733V256c0-20.206933 16.384-36.5568 36.590933-36.5568z" fill="#000000" p-id="9839"></path></svg>