<svg t="1774448995355" class="icon" viewBox="0 0 1024 1024" version="1.1" xmlns="http://www.w3.org/2000/svg" p-id="26699" width="200" height="200"><path d="M0 512c0 282.770286 229.229714 512 512 512s512-229.229714 512-512S794.770286 0 512 0 0 229.229714 0 512z" fill="#056DAE" p-id="26700"></path><path d="M219.538286 440.758857c0 0.365714 0 0.731429 0.109714 1.097143l0.109714 1.243429c0 0.329143 0.109714 0.548571 0.109715 0.841142 0.109714 0.438857 0.109714 0.950857 0.219428 1.389715l0.073143 0.731428 0.365714 1.389715 0.073143 0.621714 0.329143 1.28c0.109714 0.219429 0.109714 0.512 0.219429 0.731428a3.766857 3.766857 0 0 0 0.402285 1.170286l0.365715 0.841143c0.073143 0.329143 0.292571 0.731429 0.365714 1.097143l0.365714 0.914286 0.402286 0.950857 0.438857 1.097143c0.109714 0.182857 0.219429 0.512 0.438857 0.731428 0.182857 0.402286 0.402286 0.731429 0.512 1.170286 0.109714 0.182857 0.219429 0.402286 0.438857 0.621714 0.219429 0.402286 0.438857 0.731429 0.621715 1.170286a2.194286 2.194286 0 0 0 0.438857 0.621714c0.219429 0.438857 0.548571 0.731429 0.731428 1.170286 0.109714 0.219429 0.365714 0.438857 0.438857 0.621714 0.219429 0.438857 0.548571 0.731429 0.877715 1.170286 0.182857 0.219429 0.292571 0.438857 0.512 0.658286 0.219429 0.292571 0.548571 0.621714 0.731428 0.950857 0.219429 0.292571 0.548571 0.512 0.768 0.841143l0.658286 0.731428 1.462857 1.609143 1.609143 1.462857c0.219429 0.219429 0.548571 0.438857 0.731429 0.658286 0.365714 0.182857 0.548571 0.512 0.877714 0.731428a5.851429 5.851429 0 0 0 0.950857 0.731429l0.658286 0.548571 1.170285 0.841143 0.658286 0.402286c0.402286 0.219429 0.731429 0.548571 1.170286 0.731429a2.230857 2.230857 0 0 1 0.621714 0.438857L241.737143 475.428571c0.219429 0.073143 0.438857 0.182857 0.658286 0.402286 0.402286 0.219429 0.731429 0.438857 1.170285 0.548572 0.219429 0.109714 0.548571 0.182857 0.731429 0.402285 0.365714 0.219429 0.731429 0.329143 1.097143 0.438857l0.950857 0.402286 0.950857 0.365714c0.329143 0.073143 0.731429 0.292571 1.097143 0.365715l0.841143 0.365714c0.402286 0.073143 0.841143 0.292571 1.170285 0.365714 0.219429 0.146286 0.512 0.146286 0.731429 0.256l1.28 0.292572c0.219429 0.109714 0.438857 0.109714 0.731429 0.219428l1.426285 0.329143c0.219429 0 0.402286 0.109714 0.731429 0.109714a6.290286 6.290286 0 0 0 1.389714 0.219429l0.841143 0.073143c0.438857 0.109714 0.877714 0.109714 1.28 0.109714l1.097143 0.109714c0.292571 0 0.621714 0.109714 0.950857 0.109715 0.731429 0 1.462857 0.109714 2.121143 0.109714h531.931428c24.137143 0 43.776-19.382857 43.776-43.446857 0-23.917714-19.565714-43.410286-43.776-43.410286H368.713143l27.794286-27.538286a43.117714 43.117714 0 0 0 0-61.330285 43.958857 43.958857 0 0 0-61.842286 0l-102.4 101.558857-1.499429 1.609143-0.658285 0.731428c-0.219429 0.329143-0.548571 0.548571-0.731429 0.841143a5.851429 5.851429 0 0 0-0.731429 0.950857c-0.256 0.219429-0.365714 0.438857-0.548571 0.658286-0.365714 0.402286-0.548571 0.731429-0.877714 1.170286-0.109714 0.182857-0.329143 0.402286-0.438857 0.621714-0.182857 0.438857-0.512 0.731429-0.731429 1.170286a2.194286 2.194286 0 0 1-0.438857 0.621714c-0.182857 0.438857-0.402286 0.731429-0.621714 1.170286-0.109714 0.219429-0.219429 0.438857-0.438858 0.658285-0.219429 0.402286-0.438857 0.731429-0.512 1.133715-0.109714 0.219429-0.219429 0.548571-0.438857 0.731428-0.219429 0.365714-0.329143 0.731429-0.438857 1.097143-0.109714 0.292571-0.329143 0.621714-0.402286 0.950857l-0.365714 0.950857c-0.073143 0.292571-0.292571 0.731429-0.365714 1.060572l-0.365714 0.841143-0.402286 1.170285c-0.109714 0.219429-0.109714 0.512-0.219429 0.731429l-0.329143 1.28c-0.109714 0.219429-0.109714 0.402286-0.109714 0.621714l-0.329143 1.389715c0 0.219429-0.109714 0.402286-0.109714 0.731428a6.144 6.144 0 0 0-0.182857 1.389714c0 0.292571-0.109714 0.512-0.109714 0.841143-0.109714 0.438857-0.109714 0.841143-0.109715 1.28l-0.109714 1.060572c0 0.292571-0.109714 0.621714-0.109714 1.060571 0 0.731429-0.109714 1.353143-0.109715 2.121143 0 0.731429 0 1.462857 0.109715 2.084571-0.109714 0.548571 0 0.877714 0 1.170286z m611.657143 209.664a5.851429 5.851429 0 0 0 0.731428-0.950857c0.256-0.219429 0.365714-0.438857 0.548572-0.658286 0.365714-0.402286 0.548571-0.731429 0.877714-1.170285 0.109714-0.182857 0.329143-0.402286 0.438857-0.621715 0.182857-0.438857 0.512-0.731429 0.731429-1.170285a2.194286 2.194286 0 0 1 0.438857-0.621715c0.182857-0.438857 0.402286-0.731429 0.621714-1.170285a2.194286 2.194286 0 0 1 0.438857-0.621715c0.219429-0.438857 0.438857-0.731429 0.512-1.170285 0.109714-0.219429 0.219429-0.548571 0.438857-0.731429 0.219429-0.365714 0.329143-0.731429 0.438857-1.097143 0.109714-0.292571 0.329143-0.621714 0.402286-0.950857l0.365714-0.950857c0.073143-0.292571 0.292571-0.731429 0.365715-1.060572l0.365714-0.841142 0.402286-1.170286c0.109714-0.182857 0.109714-0.512 0.219428-0.731429l0.329143-1.28c0.109714-0.182857 0.109714-0.402286 0.109714-0.621714l0.329143-1.389714c0-0.219429 0.109714-0.402286 0.109715-0.731429a6.144 6.144 0 0 0 0.182857-1.389714c0-0.292571 0.109714-0.512 0.109714-0.841143 0.109714-0.402286 0.109714-0.841143 0.109714-1.28l0.109715-1.060571c0-0.292571 0.109714-0.621714 0.109714-1.060572 0-0.731429 0.109714-1.353143 0.109714-2.084571 0-0.731429 0-1.499429-0.109714-2.121143 0-0.365714 0-0.658286-0.109714-1.097143 0-0.292571 0-0.731429-0.109715-1.024 0-0.438857-0.109714-0.877714-0.109714-1.28 0-0.329143-0.109714-0.548571-0.109714-0.841143-0.109714-0.438857-0.109714-0.950857-0.182857-1.389714 0-0.219429-0.109714-0.438857-0.109715-0.731429l-0.365714-1.389714c-0.073143-0.219429-0.073143-0.402286-0.073143-0.621714l-0.329143-1.28c-0.109714-0.219429-0.109714-0.512-0.219428-0.731429-0.109714-0.438857-0.182857-0.841143-0.402286-1.170286l-0.365714-0.841142c-0.073143-0.329143-0.292571-0.731429-0.365715-1.097143l-0.365714-0.914286c-0.073143-0.329143-0.292571-0.658286-0.402286-0.950857l-0.438857-1.097143c-0.109714-0.182857-0.219429-0.512-0.438857-0.731429-0.182857-0.402286-0.402286-0.731429-0.512-1.170285-0.109714-0.182857-0.219429-0.402286-0.438857-0.621715-0.219429-0.402286-0.438857-0.731429-0.621714-1.170285-0.109714-0.219429-0.219429-0.402286-0.438857-0.621715-0.219429-0.438857-0.548571-0.731429-0.731429-1.170285-0.109714-0.219429-0.365714-0.438857-0.438857-0.621715-0.219429-0.438857-0.548571-0.731429-0.877714-1.170285-0.182857-0.219429-0.292571-0.438857-0.512-0.658286-0.219429-0.292571-0.548571-0.621714-0.731429-0.950857-0.219429-0.292571-0.548571-0.512-0.768-0.841143l-0.658286-0.731429-1.462857-1.609142-1.609143-1.462858c-0.219429-0.219429-0.548571-0.438857-0.731428-0.658285-0.365714-0.182857-0.548571-0.512-0.877715-0.731429l-0.950857-0.731428-0.658285-0.548572-1.170286-0.841143-0.621714-0.402285c-0.438857-0.219429-0.731429-0.548571-1.206858-0.731429a2.230857 2.230857 0 0 1-0.621714-0.438857L818.724571 585.142857a2.230857 2.230857 0 0 1-0.658285-0.402286c-0.402286-0.219429-0.731429-0.438857-1.170286-0.548571-0.219429-0.109714-0.512-0.182857-0.731429-0.402286-0.329143-0.219429-0.731429-0.329143-1.097142-0.438857l-0.950858-0.402286-0.950857-0.365714c-0.329143-0.073143-0.731429-0.292571-1.097143-0.365714l-0.841142-0.365714c-0.402286-0.073143-0.841143-0.292571-1.170286-0.365715-0.219429-0.146286-0.512-0.146286-0.731429-0.256l-1.28-0.292571c-0.219429-0.109714-0.438857-0.109714-0.731428-0.219429l-1.426286-0.329143c-0.182857 0-0.402286-0.109714-0.731429-0.109714a6.290286 6.290286 0 0 0-1.389714-0.219428l-0.841143-0.073143c-0.438857-0.109714-0.877714-0.109714-1.28-0.109715l-1.097143-0.109714c-0.292571 0-0.621714-0.109714-0.950857-0.109714-0.731429 0-1.462857-0.109714-2.121143-0.109714H265.472c-24.137143 0-43.812571 19.382857-43.812571 43.446857 0 23.917714 19.565714 43.410286 43.812571 43.410285h426.276571l-27.794285 27.538286a43.117714 43.117714 0 0 0 0 61.330286 43.958857 43.958857 0 0 0 61.842285 0l102.4-101.558857c0.548571-0.548571 0.987429-1.097143 1.536-1.609143l0.621715-0.731429 0.841143-0.950857z" fill="#FFFFFF" p-id="26701"></path></svg>