<svg t="1774363142027" class="icon" viewBox="0 0 1024 1024" version="1.1" xmlns="http://www.w3.org/2000/svg" p-id="54547" width="200" height="200"><path d="M256 418.56a131.2 131.2 0 0 0 128-131.2V256a131.2 131.2 0 0 0-262.4 0v28.8A131.2 131.2 0 0 0 256 418.56zM153.6 256a99.2 99.2 0 0 1 198.4 0v28.8a99.2 99.2 0 1 1-198.4 0zM771.2 418.56a131.2 131.2 0 0 0 128-128V256A131.2 131.2 0 1 0 640 256v28.8a131.2 131.2 0 0 0 131.2 133.76zM672 256a99.2 99.2 0 1 1 198.4 0v28.8a99.2 99.2 0 1 1-198.4 0zM488.96 655.36v-53.12A119.04 119.04 0 0 0 398.72 486.4l-112.64-26.88a145.28 145.28 0 0 0-70.4 0l-109.44 26.88A118.4 118.4 0 0 0 16 601.6v53.76h32V601.6a87.04 87.04 0 0 1 64-84.48l109.44-26.24a117.12 117.12 0 0 1 55.68 0l112 27.52a86.4 86.4 0 0 1 64 84.48v53.12zM917.12 486.4l-112-26.88a148.48 148.48 0 0 0-71.04 0l-108.8 26.88a118.4 118.4 0 0 0-90.24 115.2v53.76h32V601.6a87.04 87.04 0 0 1 64-84.48l108.8-26.24a128 128 0 0 1 55.68 0l112 27.52a87.04 87.04 0 0 1 64 84.48v53.12h32v-53.76a119.04 119.04 0 0 0-86.4-115.84z" fill="#3C3D41" p-id="54548"></path><path d="M244.48 821.12v-169.6l51.84 51.84A15.36 15.36 0 0 0 320 704a16.64 16.64 0 0 0 0-22.4l-77.44-76.8a14.08 14.08 0 0 0-13.44-3.84 13.44 13.44 0 0 0-12.8 3.84l-76.8 76.16a16.64 16.64 0 0 0 0 22.4 15.36 15.36 0 0 0 23.04 0l49.92-49.92v167.68A75.52 75.52 0 0 0 288.64 896h67.84v-32H288.64a43.52 43.52 0 0 1-44.16-42.88zM405.12 864.64h43.52v32h-43.52zM487.04 864.64h56.32v32h-56.32zM575.36 864.64h34.56v32h-34.56zM804.48 604.8a15.36 15.36 0 0 0-13.44-3.84 14.72 14.72 0 0 0-13.44 3.84L704 680.96a15.36 15.36 0 0 0 0 23.04 14.72 14.72 0 0 0 10.88 5.12 16 16 0 0 0 11.52-5.12l51.2-51.2v168.96a43.52 43.52 0 0 1-44.16 43.52h-71.68V896h69.12a75.52 75.52 0 0 0 76.16-75.52V652.8l50.56 50.56a17.28 17.28 0 0 0 11.52 5.12 16 16 0 0 0 11.52-5.12 15.36 15.36 0 0 0 0-22.4z" fill="#3C3D41" p-id="54549"></path></svg>