<svg t="1774362994856" class="icon" viewBox="0 0 1024 1024" version="1.1" xmlns="http://www.w3.org/2000/svg" p-id="45123" width="200" height="200"><path d="M372.736 391.168h26.624V389.12H266.24zM313.344 235.52c-20.48 32.768-36.864 69.632-47.104 106.496v2.048c12.288-38.912 28.672-75.776 49.152-108.544 36.864-57.344 88.064-96.256 151.552-108.544 4.096-2.048 8.192-4.096 14.336-6.144h-2.048c-4.096 2.048-8.192 4.096-14.336 6.144-63.488 12.288-114.688 51.2-151.552 108.544zM634.88 239.616c0-45.056-24.576-86.016-61.44-104.448 36.864 20.48 61.44 59.392 61.44 104.448z" fill="#B8DBFE" p-id="45124"></path><path d="M399.36 239.616c0-34.816 12.288-65.536 36.864-88.064 8.192-10.24 20.48-16.384 30.72-22.528 12.288-2.048 22.528-4.096 34.816-4.096 2.048 0 6.144-2.048 10.24-2.048h-8.192c-12.288 0-24.576 2.048-36.864 4.096-10.24 6.144-20.48 12.288-30.72 22.528-24.576 24.576-36.864 55.296-36.864 90.112zM657.408 679.936v-20.48h20.48c2.048-2.048 2.048 0 4.096-2.048s2.048-2.048 4.096-2.048c0-2.048 2.048-2.048 2.048-2.048 0-2.048 2.048-2.048 2.048-2.048l2.048-2.048 2.048-2.048 2.048-2.048c2.048 0 2.048-2.048 2.048-2.048v-12.288c-2.048 0-2.048-2.048-2.048-2.048v10.24c-2.048 0-2.048 2.048-2.048 2.048l-2.048 2.048-2.048 2.048s-2.048 0-2.048 2.048-2.048 2.048-2.048 2.048c0 2.048 0 2.048-2.048 2.048-2.048 2.048-2.048 0-4.096 2.048s-2.048 2.048-4.096 2.048h-16.384c-2.048 0-2.048 0-4.096-4.096V700.416l-12.288 6.144c4.096-2.048 8.192-4.096 14.336-4.096v-22.528zM512 122.88c20.48 2.048 40.96 6.144 61.44 12.288-20.48-8.192-38.912-12.288-61.44-12.288zM647.168 501.76c10.24 0 20.48 6.144 28.672 16.384 6.144 10.24 10.24 20.48 10.24 34.816s-2.048 24.576-10.24 34.816c-6.144 8.192-12.288 12.288-20.48 14.336v8.192h2.048v-8.192c8.192-2.048 14.336-6.144 20.48-14.336 6.144-10.24 10.24-20.48 10.24-34.816 0-6.144 0-12.288-2.048-18.432-2.048-4.096-4.096-8.192-6.144-14.336l-2.048-2.048c-8.192-10.24-18.432-16.384-30.72-16.384zM397.312 839.68c67.584 90.112 204.8 77.824 249.856-16.384-45.056 92.16-182.272 106.496-249.856 16.384zM479.232 102.4c4.096 0 6.144-2.048 10.24-2.048h-2.048c-4.096 0-6.144 2.048-10.24 2.048h2.048zM362.496 137.216c20.48-10.24 40.96-14.336 63.488-16.384-22.528 2.048-45.056 6.144-63.488 16.384zM264.192 352.256V391.168h2.048-2.048V389.12h2.048v-45.056c0 2.048-2.048 4.096-2.048 8.192zM342.016 460.8c-10.24-24.576-32.768-43.008-63.488-49.152 28.672 6.144 51.2 24.576 63.488 49.152zM256 409.6c8.192 0 14.336 0 20.48 2.048h2.048c-8.192-2.048-14.336-2.048-22.528-2.048zM325.632 493.568s0 2.048 0 0c4.096 2.048 14.336 0 22.528-4.096v-2.048c-10.24 4.096-18.432 6.144-22.528 6.144zM747.52 411.648c-30.72 6.144-55.296 26.624-65.536 51.2 10.24-24.576 34.816-45.056 65.536-51.2zM745.472 223.232c8.192 18.432 12.288 36.864 12.288 57.344 0-20.48-6.144-40.96-12.288-57.344zM266.24 307.2c-10.24 28.672-18.432 57.344-20.48 81.92h2.048c2.048-24.576 8.192-53.248 18.432-81.92zM425.984 120.832c-10.24 4.096-20.48 8.192-30.72 14.336 10.24-4.096 20.48-10.24 30.72-14.336zM282.624 266.24c30.72-63.488 73.728-120.832 112.64-131.072-40.96 10.24-83.968 67.584-112.64 131.072zM243.712 389.12h2.048v2.048h-2.048zM249.856 407.552H245.76v2.048l4.096-2.048c0-2.048 0 0 0 0zM563.2 120.832c-12.288-6.144-24.576-8.192-40.96-8.192 14.336 0 28.672 2.048 40.96 8.192zM276.48 909.312v4.096c0 2.048 2.048 4.096 4.096 6.144l2.048-2.048c-4.096-2.048-6.144-4.096-6.144-8.192zM731.136 954.368l2.048-2.048c-4.096-2.048-6.144-4.096-6.144-8.192v4.096c0 2.048 2.048 4.096 4.096 6.144zM276.48 944.128v4.096c0 2.048 2.048 4.096 4.096 6.144l2.048-2.048c-4.096-2.048-6.144-4.096-6.144-8.192zM745.472 894.976c6.144 6.144 14.336 10.24 22.528 12.288-8.192-6.144-16.384-10.24-22.528-14.336-2.048-2.048-4.096-4.096-8.192-4.096-14.336-8.192-26.624-16.384-47.104-26.624v2.048c18.432 10.24 32.768 18.432 47.104 26.624 4.096 0 6.144 2.048 8.192 4.096zM747.52 927.744c0-4.096-2.048-6.144-4.096-10.24h-2.048c4.096 4.096 6.144 6.144 6.144 10.24zM747.52 960.512c0-2.048-2.048-4.096-4.096-8.192h-2.048c4.096 4.096 6.144 8.192 6.144 8.192zM268.288 903.168v2.048c2.048-2.048 6.144-4.096 8.192-6.144v-2.048c-2.048 2.048-4.096 4.096-8.192 6.144zM290.816 952.32c4.096-2.048 6.144-4.096 6.144-8.192 0 2.048-2.048 6.144-6.144 8.192z" fill="#B8DBFE" p-id="45125"></path><path d="M616.448 628.736l2.048-2.048 2.048-2.048s2.048 0 2.048-2.048 2.048-2.048 2.048-2.048c0-2.048 0-2.048 2.048-2.048 2.048-2.048 2.048 0 4.096-2.048s2.048-2.048 4.096-2.048H647.168c2.048 0 2.048 0 4.096 4.096h4.096v-8.192h-20.48c-2.048 2.048-2.048 0-4.096 2.048s-2.048 2.048-4.096 2.048c0 2.048-2.048 2.048-2.048 2.048 0 2.048-2.048 2.048-2.048 2.048l-2.048 2.048-2.048 2.048-2.048 2.048c-2.048 0-2.048 2.048-2.048 2.048l2.048 2.048c0 2.048 0 0 0 0zM286.72 890.88s-2.048 2.048-4.096 2.048c2.048 0 4.096-2.048 4.096-2.048 20.48-10.24 36.864-18.432 59.392-30.72v-2.048c-24.576 12.288-38.912 20.48-59.392 32.768-6.144-2.048-8.192 2.048-10.24 6.144h2.048c2.048-4.096 4.096-6.144 8.192-6.144zM290.816 917.504c4.096-2.048 6.144-4.096 6.144-8.192 0 2.048-2.048 6.144-6.144 8.192zM632.832 528.384s0 2.048 0 0c0 2.048 0 2.048 0 0 0 2.048 0 2.048 0 0zM673.792 534.528c-2.048 4.096 0 6.144 0 10.24v2.048l-2.048 2.048c0 2.048-2.048 2.048-2.048 2.048h-2.048v2.048h4.096l2.048-2.048c2.048 0 2.048-2.048 2.048-2.048v-2.048-2.048c0-2.048-2.048-6.144-2.048-10.24zM630.784 532.48c0-2.048 0-2.048 0 0 0-2.048 0-2.048 0 0 0-2.048 0-2.048 0 0zM624.64 524.288c2.048 2.048 4.096 4.096 8.192 6.144-2.048-4.096-4.096-4.096-8.192-6.144 6.144-6.144 14.336-10.24 22.528-10.24 6.144 0 12.288 2.048 16.384 6.144-6.144-6.144-12.288-8.192-18.432-8.192-8.192 0-16.384 4.096-22.528 10.24 2.048 0 2.048 0 2.048 2.048-2.048 0-2.048 0 0 0-6.144 8.192-10.24 18.432-10.24 28.672 0-10.24 4.096-20.48 8.192-26.624l2.048-2.048zM663.552 552.96c0 6.144-2.048 14.336-6.144 18.432l-2.048 2.048v6.144l4.096-4.096c4.096-6.144 6.144-14.336 6.144-22.528h-2.048zM657.408 548.864v-12.288l2.048-2.048c2.048 2.048 2.048 2.048 2.048 4.096 0-2.048-2.048-4.096-2.048-6.144l-2.048 2.048c-2.048 0-2.048 2.048-2.048 2.048v8.192l2.048 4.096v2.048c2.048 0 2.048 0 4.096 2.048l-2.048-2.048c-2.048 0-2.048-2.048-2.048-2.048zM731.136 919.552l2.048-2.048c-4.096-2.048-6.144-4.096-6.144-8.192v4.096c0 2.048 2.048 4.096 4.096 6.144zM655.36 675.84zM614.4 518.144c-6.144 8.192-10.24 18.432-10.24 30.72v2.048c0-12.288 4.096-22.528 10.24-32.768z" fill="#B8DBFE" p-id="45126"></path><path d="M659.456 530.432c-2.048-2.048-2.048-4.096-4.096-4.096l2.048 2.048 2.048 2.048c0 2.048 0 2.048 0 0 0 2.048 0 2.048 0 0zM387.072 534.528c2.048 0 2.048 2.048 2.048 2.048v12.288l-2.048 2.048c0 2.048-2.048 2.048-2.048 2.048h2.048l2.048-2.048c2.048 0 2.048-2.048 2.048-2.048v-12.288c-2.048-2.048-2.048-2.048-4.096-2.048 2.048-2.048 0-2.048 0 0l-2.048-2.048 2.048 2.048zM393.216 559.104v-2.048c-4.096 4.096-8.192 6.144-14.336 6.144 6.144 0 10.24-2.048 14.336-4.096zM378.88 512c-10.24 0-16.384 4.096-22.528 12.288 6.144-8.192 14.336-12.288 22.528-12.288zM399.36 544.768c0 2.048 0 2.048 0 0s2.048-2.048 2.048-4.096c0 2.048-2.048 2.048-2.048 4.096zM317.44 651.264c0 2.048 0 2.048 2.048 2.048 0-2.048-2.048-2.048-2.048-2.048zM315.392 649.216c0 2.048 2.048 2.048 2.048 2.048 0-2.048-2.048-2.048-2.048-2.048zM399.36 546.816c-2.048 4.096-4.096 8.192-6.144 10.24 4.096-2.048 6.144-6.144 6.144-10.24zM380.928 649.216l2.048-2.048s-2.048 0-2.048 2.048zM393.216 575.488c2.048-2.048 2.048-4.096 2.048-6.144 0 2.048-2.048 4.096-2.048 6.144-2.048 0-2.048 0-4.096 2.048v2.048l4.096-4.096zM397.312 565.248v0zM419.84 550.912v-2.048c0-8.192-2.048-14.336-4.096-22.528l-2.048 2.048c4.096 6.144 6.144 14.336 6.144 22.528zM378.88 618.496c0-2.048 0-2.048-2.048-2.048 0 2.048 2.048 2.048 2.048 2.048zM380.928 620.544c0-2.048-2.048-2.048 0 0-2.048 0 0 0 0 0zM309.248 626.688c-2.048 0-2.048 2.048-2.048 2.048 2.048 0 2.048-2.048 2.048-2.048zM389.12 628.736c-2.048 0-2.048-2.048-2.048-2.048s0 2.048 2.048 2.048zM368.64 612.352c2.048 2.048 2.048 0 4.096 2.048-2.048-2.048-2.048-2.048-4.096-2.048zM323.584 655.36c-2.048-2.048-2.048-2.048-4.096-2.048 2.048 2.048 2.048 0 4.096 2.048zM327.68 657.408c-2.048-2.048-2.048 0-4.096-2.048 2.048 2.048 2.048 2.048 4.096 2.048zM372.736 614.4c2.048 2.048 2.048 2.048 4.096 2.048-2.048-2.048-2.048 0-4.096-2.048zM337.92 552.96c0 14.336 2.048 24.576 10.24 34.816-6.144-10.24-10.24-20.48-10.24-34.816zM389.12 630.784c-2.048-2.048-2.048 0 0 0zM522.24 133.12C548.864 133.12 573.44 143.36 593.92 163.84c-18.432-20.48-45.056-30.72-71.68-30.72zM645.12 391.168h2.048v18.432h-2.048zM753.664 409.6h8.192-8.192s-2.048 0 0 0c-2.048 2.048-2.048 2.048 0 0zM749.568 389.12c-6.144-38.912-18.432-77.824-34.816-112.64 16.384 34.816 26.624 73.728 34.816 112.64zM753.664 411.648c2.048 22.528 4.096 45.056 4.096 65.536 0-22.528-2.048-45.056-4.096-65.536z" fill="#B8DBFE" p-id="45127"></path><path d="M512 0C229.376 0 0 229.376 0 512c0 178.176 92.16 335.872 229.376 425.984l-18.432-12.288c43.008-40.96 98.304-73.728 167.936-106.496 2.048 0 4.096 0 6.144 4.096 0 2.048 2.048 4.096 4.096 6.144v-106.496c-28.672-10.24-55.296-26.624-75.776-47.104s-36.864-47.104-49.152-77.824c10.24-6.144 22.528-16.384 34.816-28.672 28.672-12.288 49.152-40.96 49.152-71.68v-2.048c20.48-8.192 47.104-24.576 65.536-61.44 67.584 61.44 159.744 79.872 266.24 34.816 0-2.048 2.048-4.096 2.048-6.144-106.496 45.056-200.704 26.624-268.288-34.816-18.432 36.864-45.056 53.248-65.536 61.44v2.048c0 28.672-18.432 55.296-45.056 69.632l-2.048 2.048c-2.048 0-2.048 0-4.096 2.048-12.288 14.336-24.576 22.528-32.768 26.624l-6.144-18.432c-2.048-8.192-4.096-18.432-6.144-26.624 0-6.144-2.048-12.288-2.048-18.432 0 6.144 2.048 12.288 2.048 18.432 2.048 10.24 4.096 18.432 8.192 26.624-2.048-14.336-6.144-28.672-8.192-45.056-2.048-26.624-2.048-53.248-2.048-88.064 0-10.24 0-18.432 2.048-28.672h24.576l-26.624-2.048v0l-4.096 2.048h4.096c0 10.24-2.048 18.432-2.048 28.672-2.048 12.288-2.048 24.576-2.048 36.864 0-12.288 0-24.576 2.048-34.816 0 32.768 0 61.44 2.048 88.064-2.048-16.384-4.096-34.816-4.096-53.248 0 18.432 2.048 34.816 2.048 51.2 2.048 16.384 4.096 30.72 8.192 45.056h0c4.096 6.144 6.144 12.288 6.144 18.432l-6.144-18.432C204.8 573.44 163.84 536.576 163.84 491.52c0-40.96 34.816-75.776 79.872-81.92H122.88c0-12.288 6.144-20.48 16.384-20.48h104.448l2.048-104.448c0-24.576 6.144-49.152 16.384-71.68s22.528-43.008 40.96-59.392c16.384-16.384 36.864-28.672 59.392-38.912 24.576-10.24 49.152-14.336 73.728-14.336h51.2c36.864-8.192 69.632-8.192 100.352 0 26.624 0 51.2 4.096 73.728 14.336 22.528 8.192 40.96 22.528 59.392 38.912 16.384 18.432 30.72 36.864 40.96 59.392 10.24 22.528 16.384 47.104 16.384 71.68v96.256c0 6.144 2.048 14.336 2.048 20.48v10.24c6.144 53.248 0 108.544-16.384 161.792 16.384-53.248 22.528-108.544 18.432-161.792h-2.048 2.048v-10.24 10.24c45.056 4.096 77.824 38.912 77.824 79.872 0 45.056-40.96 81.92-92.16 81.92h-4.096c-6.144 0-10.24 0-16.384-2.048 4.096 0 10.24 2.048 14.336 2.048-2.048 6.144-4.096 14.336-6.144 20.48-4.096-4.096-8.192-10.24-12.288-14.336v-2.048c-4.096-4.096-6.144-6.144-8.192-10.24h-2.048v-2.048c-32.768-12.288-55.296-38.912-57.344-71.68v2.048c0 8.192 2.048 16.384 4.096 22.528 2.048 4.096 6.144 8.192 6.144 14.336 10.24 18.432 28.672 30.72 49.152 38.912 4.096 4.096 6.144 8.192 10.24 12.288-10.24 34.816-28.672 65.536-51.2 90.112-10.24 10.24-22.528 20.48-36.864 28.672V819.2c67.584 30.72 118.784 63.488 159.744 100.352-14.336 12.288-32.768 22.528-49.152 32.768-6.144 2.048-14.336 6.144-20.48 10.24s-14.336 6.144-20.48 10.24v2.048c-12.288 6.144-24.576 12.288-36.864 16.384v-2.048c-55.296 20.48-114.688 32.768-178.176 32.768-57.344 0-112.64-10.24-165.888-28.672-16.384-6.144-32.768-12.288-49.152-20.48-6.144-4.096-14.336-6.144-20.48-10.24v4.096C346.112 1003.52 428.032 1024 512 1024c282.624 0 512-229.376 512-512S794.624 0 512 0z" fill="#B8DBFE" p-id="45128"></path><path d="M649.216 133.12c24.576 20.48 47.104 47.104 67.584 83.968 16.384 28.672 30.72 59.392 40.96 88.064v-2.048c-10.24-28.672-24.576-57.344-40.96-88.064-20.48-34.816-40.96-61.44-65.536-83.968l-2.048 2.048c-14.336-14.336-32.768-24.576-51.2-30.72h-2.048c18.432 6.144 36.864 16.384 53.248 30.72-18.432-8.192-38.912-12.288-61.44-12.288h-22.528c2.048 0 4.096 2.048 4.096 2.048h18.432c22.528 0 43.008 2.048 61.44 10.24zM387.072 643.072c2.048 0 2.048-2.048 2.048-2.048-2.048 0-2.048 2.048-2.048 2.048zM315.392 620.544l-2.048 2.048s2.048 0 2.048-2.048zM544.768 649.216c2.048-2.048 4.096-4.096 6.144-4.096h-2.048c-4.096 0-6.144 2.048-8.192 4.096-6.144 10.24-12.288 14.336-18.432 16.384 8.192 0 14.336-6.144 22.528-16.384zM499.712 675.84c-6.144-4.096-10.24-8.192-14.336-14.336-2.048-2.048-2.048-4.096-2.048-6.144 0-6.144 4.096-8.192 8.192-10.24h-2.048c-6.144 0-10.24 4.096-10.24 10.24 0 2.048 0 4.096 2.048 6.144 4.096 6.144 10.24 10.24 14.336 14.336 2.048 2.048 4.096 2.048 6.144 2.048-2.048 0-2.048-2.048-4.096-2.048h2.048zM514.048 684.032c12.288 4.096 24.576 0 34.816-8.192-10.24 8.192-22.528 10.24-34.816 8.192zM516.096 530.432v-2.048c0-6.144-4.096-10.24-10.24-10.24-4.096 0-8.192 4.096-10.24 8.192 2.048-2.048 6.144-4.096 8.192-4.096 6.144 0 10.24 4.096 10.24 10.24v2.048c-6.144 18.432-8.192 28.672-10.24 36.864 0 8.192-2.048 18.432-2.048 28.672 8.192 4.096 18.432 4.096 30.72 4.096 6.144 0 10.24 4.096 8.192 14.336v2.048c2.048-2.048 4.096-6.144 4.096-10.24 0-6.144-4.096-10.24-10.24-10.24-12.288 0-22.528-2.048-30.72-4.096 0-10.24 0-20.48 2.048-28.672 2.048-8.192 6.144-20.48 10.24-36.864z" fill="#B8DBFE" p-id="45129"></path><path d="M643.072 706.56c-36.864 20.48-83.968 30.72-139.264 30.72-43.008 0-81.92-6.144-114.688-18.432v110.592c2.048 2.048 4.096 6.144 8.192 10.24 108.544 0 208.896-61.44 245.76-133.12zM243.712 409.6c-45.056 6.144-79.872 40.96-79.872 81.92 0 45.056 40.96 81.92 92.16 81.92-4.096-14.336-6.144-28.672-8.192-45.056 0-16.384-2.048-32.768-2.048-51.2 0-12.288 0-24.576 2.048-36.864-2.048-10.24-2.048-18.432-4.096-30.72zM860.16 491.52c0-40.96-32.768-75.776-77.824-79.872 4.096 53.248-2.048 108.544-18.432 161.792h4.096c51.2 0 92.16-36.864 92.16-81.92z" fill="#FEDEB8" p-id="45130"></path><path d="M679.936 520.192c2.048 4.096 4.096 10.24 6.144 14.336-2.048-4.096-4.096-8.192-6.144-14.336zM677.888 587.776c-6.144 8.192-12.288 12.288-20.48 14.336v8.192H675.84c2.048 2.048 2.048 0 4.096 2.048s2.048 2.048 4.096 2.048c0 2.048 2.048 2.048 2.048 2.048 0 2.048 2.048 2.048 2.048 2.048l2.048 2.048 2.048 2.048 2.048 2.048c2.048 0 2.048 2.048 2.048 2.048v2.048s0 2.048 2.048 2.048v12.288s0 2.048-2.048 2.048l-2.048 2.048-2.048 2.048-2.048 2.048s-2.048 0-2.048 2.048c0 0-2.048 0-2.048 2.048-2.048 0-2.048 0-4.096 2.048s-2.048 0-4.096 2.048h-20.48v43.008c-6.144 0-10.24 2.048-14.336 4.096-36.864 71.68-137.216 133.12-245.76 133.12 67.584 90.112 204.8 75.776 249.856-16.384 0-4.096 4.096-4.096 4.096-4.096 2.048 2.048 2.048 2.048 4.096 2.048V819.2h2.048v-114.688c14.336-8.192 26.624-18.432 36.864-28.672 22.528-24.576 40.96-55.296 51.2-90.112-4.096-4.096-6.144-8.192-10.24-12.288-20.48-8.192-38.912-20.48-49.152-38.912 2.048 6.144 2.048 12.288 2.048 18.432 0 14.336-4.096 24.576-10.24 34.816z" fill="#FFE6C9" p-id="45131"></path><path d="M503.808 737.28c55.296 0 102.4-10.24 139.264-30.72l12.288-6.144V675.84c-2.048 8.192-4.096 14.336-8.192 22.528 4.096-8.192 4.096-14.336 8.192-22.528v-16.384h-20.48c-2.048-2.048-2.048 0-4.096-2.048s-2.048-2.048-4.096-2.048c0-2.048-2.048-2.048-2.048-2.048 0-2.048-2.048-2.048-2.048-2.048l-2.048-2.048-2.048-2.048-2.048-2.048c-2.048 0-2.048-2.048-2.048-2.048V626.688s0-2.048 2.048-2.048l2.048-2.048 2.048-2.048 2.048-2.048s2.048 0 2.048-2.048c0 0 2.048 0 2.048-2.048 2.048 0 2.048 0 4.096-2.048s2.048 0 4.096-2.048h20.48v-8.192c-4.096 2.048-6.144 2.048-10.24 2.048-12.288 0-22.528-6.144-30.72-16.384-6.144-10.24-10.24-20.48-10.24-34.816v-2.048-2.048c0-12.288 4.096-22.528 8.192-32.768h2.048c8.192-10.24 18.432-16.384 30.72-16.384s22.528 6.144 30.72 16.384l2.048 2.048c-2.048-8.192-4.096-14.336-4.096-22.528v-2.048c2.048 32.768 24.576 59.392 57.344 71.68-24.576-38.912-10.24-61.44-16.384-118.784-12.288 6.144-22.528 12.288-34.816 16.384 0 2.048-2.048 4.096-2.048 6.144-106.496 43.008-198.656 24.576-266.24-34.816-18.432 36.864-45.056 53.248-65.536 61.44v2.048c0 30.72-20.48 59.392-49.152 71.68-12.288 12.288-24.576 22.528-34.816 28.672 12.288 30.72 28.672 57.344 49.152 77.824s47.104 36.864 75.776 47.104v-4.096c34.816 12.288 73.728 18.432 116.736 18.432z m30.72-137.216c6.144 0 10.24 4.096 10.24 10.24 0 4.096-2.048 8.192-4.096 10.24-2.048 4.096-4.096 8.192-10.24 8.192-18.432 0-34.816-2.048-45.056-8.192-4.096-2.048-6.144-6.144-6.144-10.24 0-16.384 2.048-28.672 4.096-40.96 2.048-8.192 6.144-20.48 10.24-38.912 0-2.048 2.048-2.048 2.048-4.096 2.048-4.096 6.144-8.192 10.24-8.192 6.144 0 10.24 4.096 10.24 10.24v2.048c-4.096 16.384-8.192 28.672-10.24 36.864-2.048 8.192-2.048 18.432-2.048 28.672 8.192 2.048 18.432 4.096 30.72 4.096z m14.336 75.776c-10.24 8.192-22.528 12.288-34.816 8.192-4.096 0-10.24-2.048-12.288-6.144-2.048 0-4.096-2.048-6.144-2.048-4.096-4.096-10.24-8.192-14.336-14.336-2.048-2.048-2.048-4.096-2.048-6.144 0-6.144 4.096-10.24 10.24-10.24h4.096c4.096 0 6.144 2.048 8.192 4.096 4.096 10.24 10.24 14.336 18.432 16.384h2.048c6.144-2.048 12.288-6.144 18.432-16.384 2.048-2.048 4.096-4.096 8.192-4.096h4.096c6.144 0 10.24 4.096 10.24 10.24 0 2.048 0 4.096-2.048 6.144-4.096 6.144-8.192 10.24-10.24 14.336h-2.048zM348.16 518.144c8.192-10.24 18.432-16.384 30.72-16.384s22.528 6.144 30.72 16.384c2.048 2.048 4.096 4.096 6.144 8.192 2.048 6.144 4.096 14.336 4.096 22.528v4.096c0 14.336-2.048 24.576-10.24 34.816-6.144 8.192-12.288 12.288-20.48 14.336-4.096 2.048-6.144 2.048-10.24 2.048-12.288 0-22.528-6.144-30.72-16.384s-10.24-20.48-10.24-34.816 2.048-24.576 10.24-34.816z m38.912 124.928l-2.048 2.048-2.048 2.048-2.048 2.048c0 2.048-2.048 2.048-2.048 2.048 0 2.048 0 2.048-2.048 2.048-2.048 2.048-2.048 0-4.096 2.048s-2.048 2.048-4.096 2.048H327.68c-2.048 0-2.048 0-4.096-2.048s-2.048 0-4.096-2.048c-2.048 0-2.048 0-2.048-2.048 0 0-2.048 0-2.048-2.048l-2.048-2.048-2.048-2.048-2.048-2.048c-2.048 0-2.048-2.048-2.048-2.048v-12.288s0-2.048 2.048-2.048l2.048-2.048 2.048-2.048 2.048-2.048c0-2.048 2.048-2.048 2.048-2.048 0-2.048 0-2.048 2.048-2.048 2.048-2.048 2.048 0 4.096-2.048s2.048-2.048 4.096-2.048H368.64c2.048 0 2.048 0 4.096 2.048s2.048 0 4.096 2.048c2.048 0 2.048 0 2.048 2.048 0 0 2.048 0 2.048 2.048l2.048 2.048 2.048 2.048 2.048 2.048s0 2.048 2.048 2.048v4.096s0 2.048 0 0V638.976c0 2.048 0 4.096-2.048 4.096zM247.808 442.368c-2.048 10.24-2.048 22.528-2.048 34.816 0 18.432 2.048 36.864 4.096 53.248-2.048-26.624-2.048-55.296-2.048-88.064z" fill="#FFE6C9" p-id="45132"></path><path d="M303.104 561.152c26.624-14.336 45.056-40.96 45.056-69.632v-2.048c-8.192 4.096-18.432 6.144-22.528 6.144 4.096 24.576-8.192 47.104-22.528 65.536z" fill="#FFE6C9" p-id="45133"></path><path d="M532.48 604.16c-12.288 0-22.528 0-30.72-4.096 0-10.24 2.048-20.48 2.048-28.672 2.048-8.192 4.096-18.432 10.24-36.864V532.48c0-6.144-4.096-10.24-10.24-10.24-2.048 0-6.144 2.048-8.192 4.096 0 2.048-2.048 2.048-2.048 4.096-4.096 18.432-8.192 30.72-10.24 38.912-2.048 12.288-4.096 24.576-4.096 40.96 0 4.096 2.048 8.192 6.144 10.24 10.24 6.144 26.624 8.192 45.056 8.192 6.144 0 8.192-2.048 10.24-8.192v-2.048c2.048-10.24-2.048-14.336-8.192-14.336zM378.88 604.16c4.096 0 6.144 0 10.24-2.048 8.192-2.048 14.336-6.144 20.48-14.336 8.192-10.24 10.24-20.48 10.24-34.816v-2.048c0-8.192-2.048-16.384-6.144-22.528l2.048-2.048c-2.048-4.096-4.096-6.144-6.144-8.192-8.192-10.24-18.432-16.384-30.72-16.384s-22.528 6.144-30.72 16.384-10.24 20.48-10.24 34.816 4.096 24.576 10.24 34.816c8.192 10.24 18.432 16.384 30.72 16.384z m10.24-69.632l2.048 2.048v12.288s0 2.048-2.048 2.048l-2.048 2.048h-2.048s2.048 0 2.048-2.048l2.048-2.048v-12.288-2.048c-2.048 0-2.048 0-4.096-2.048l4.096 2.048c-2.048-2.048 0-2.048 0 0z m0 43.008l4.096-4.096s2.048-2.048 2.048-4.096c0 2.048-2.048 4.096-2.048 6.144l-4.096 4.096v-2.048z m8.192-10.24v-2.048 2.048z m2.048-20.48c0 4.096-2.048 8.192-6.144 10.24v2.048c-4.096 2.048-8.192 4.096-14.336 4.096 6.144 0 10.24-2.048 14.336-6.144 2.048-2.048 4.096-6.144 6.144-10.24 0-2.048 0-2.048 0 0v-2.048c0-2.048 2.048-2.048 2.048-4.096 0 2.048-2.048 4.096-2.048 6.144z m-20.48-34.816c-8.192 0-16.384 4.096-22.528 12.288 6.144-8.192 12.288-12.288 22.528-12.288z" fill="#323232" p-id="45134"></path><path d="M675.84 587.776c8.192-10.24 10.24-20.48 10.24-34.816s-4.096-24.576-10.24-34.816c-8.192-10.24-18.432-16.384-30.72-16.384s-22.528 6.144-30.72 16.384h2.048c-8.192 10.24-12.288 18.432-12.288 32.768v2.048c0 14.336 4.096 24.576 10.24 34.816 8.192 10.24 18.432 16.384 30.72 16.384 4.096 0 6.144 0 10.24-2.048 8.192-2.048 14.336-6.144 20.48-14.336z m0-51.2v12.288s0 2.048-2.048 2.048l-2.048 2.048H665.6c0 8.192-2.048 16.384-6.144 22.528l-4.096 4.096V573.44l2.048-2.048c4.096-4.096 4.096-12.288 6.144-18.432-2.048-2.048-2.048-2.048-4.096-2.048l-2.048-2.048v-12.288s0-2.048 2.048-2.048l2.048-2.048c0-2.048 0-2.048-2.048-4.096 0-2.048-2.048-2.048-2.048-2.048l4.096 4.096v2.048h8.192l2.048 2.048h2.048c2.048 0 2.048 2.048 2.048 2.048z m-43.008-8.192c0 2.048 0 2.048 0 0 0 2.048 0 2.048 0 0 0 2.048 0 0 0 0z m-2.048 4.096c0-2.048 0-2.048 0 0 0-2.048 0-2.048 0 0 0-2.048 0-2.048 0 0z m-8.192-8.192c2.048-2.048 2.048-2.048 0-2.048 6.144-6.144 14.336-10.24 22.528-10.24 6.144 0 12.288 2.048 18.432 8.192-4.096-4.096-10.24-6.144-16.384-6.144-8.192 0-16.384 4.096-20.48 10.24 2.048 2.048 4.096 2.048 6.144 4.096-4.096 0-6.144-2.048-10.24-4.096 2.048 0 2.048 0 0 2.048-4.096 6.144-8.192 16.384-8.192 26.624 0-10.24 4.096-20.48 8.192-28.672z" fill="#323232" p-id="45135"></path><path d="M669.696 532.48c0 2.048 2.048 2.048 0 0z" fill="#323232" p-id="45136"></path><path d="M673.792 534.528c0 4.096 2.048 8.192 2.048 10.24v-8.192s0-2.048-2.048-2.048zM667.648 550.912h2.048s2.048 0 2.048-2.048l2.048-2.048v-2.048c0-4.096-2.048-6.144-2.048-10.24l-2.048-2.048c2.048 2.048 0 2.048 0 0 0 0-2.048 0 0 0h-8.192c2.048 2.048 2.048 4.096 2.048 6.144 0-2.048-2.048-4.096-2.048-4.096l-2.048 2.048v12.288s0 2.048 2.048 2.048l2.048 2.048 4.096-2.048c0 2.048 0 0 0 0z" fill="#FFFFFF" p-id="45137"></path><path d="M563.2 655.36c0-6.144-4.096-10.24-10.24-10.24h-2.048c-2.048 0-4.096 2.048-6.144 4.096-8.192 10.24-14.336 16.384-22.528 16.384h-2.048c-8.192-2.048-14.336-6.144-18.432-16.384-2.048-2.048-4.096-4.096-8.192-4.096H491.52c-4.096 0-8.192 4.096-8.192 10.24 0 2.048 0 4.096 2.048 6.144 4.096 6.144 8.192 10.24 14.336 14.336h-2.048s2.048 2.048 4.096 2.048c4.096 2.048 8.192 6.144 12.288 6.144 12.288 2.048 24.576 0 34.816-8.192h2.048c2.048-4.096 6.144-8.192 10.24-14.336 2.048-2.048 2.048-4.096 2.048-6.144z" fill="#323232" p-id="45138"></path><path d="M389.12 641.024v-4.096-2.048-2.048c-2.048 0-2.048-2.048 0 0-2.048-2.048-2.048-4.096-2.048-4.096l-2.048-2.048-2.048-2.048-2.048-2.048s-2.048 0-2.048-2.048c0 0-2.048 0-2.048-2.048-2.048 0-2.048 0-4.096-2.048s-2.048 0-4.096-2.048H327.68c-2.048 0-2.048 0-4.096 2.048s-2.048 0-4.096 2.048c-2.048 0-2.048 0-2.048 2.048 0 0-2.048 0-2.048 2.048s-2.048 2.048-2.048 2.048l-2.048 2.048-2.048 2.048s0 2.048-2.048 2.048v10.24s0 2.048 2.048 2.048l2.048 2.048 2.048 2.048 2.048 2.048s2.048 0 2.048 2.048c0 0 2.048 0 2.048 2.048 2.048 0 2.048 0 4.096 2.048s2.048 0 4.096 2.048H368.64c2.048 0 2.048 0 4.096-2.048s2.048 0 4.096-2.048c2.048 0 2.048 0 2.048-2.048 0 0 2.048 0 2.048-2.048s2.048-2.048 2.048-2.048l2.048-2.048 2.048-2.048s0-2.048 2.048-2.048zM655.36 651.264c2.048 4.096 2.048 4.096 4.096 4.096h16.384c2.048 0 2.048 0 4.096-2.048s2.048 0 4.096-2.048c2.048 0 2.048 0 2.048-2.048 0 0 2.048 0 2.048-2.048s2.048-2.048 2.048-2.048l2.048-2.048 2.048-2.048s0-2.048 2.048-2.048v-12.288s0-2.048-2.048-2.048l-2.048-2.048-2.048-2.048-2.048-2.048s-2.048 0-2.048-2.048c0 0-2.048 0-2.048-2.048-2.048 0-2.048 0-4.096-2.048s-2.048 0-4.096-2.048h-16.384-2.048-2.048v8.192h-4.096c-2.048-4.096-2.048-4.096-4.096-4.096H634.88c-2.048 0-2.048 0-4.096 2.048s-2.048 0-4.096 2.048c-2.048 0-2.048 0-2.048 2.048 0 0-2.048 0-2.048 2.048s-2.048 2.048-2.048 2.048l-2.048 2.048-2.048 2.048s0 2.048-2.048 2.048v12.288s0 2.048 2.048 2.048l2.048 2.048 2.048 2.048 2.048 2.048s2.048 0 2.048 2.048c0 0 2.048 0 2.048 2.048 2.048 0 2.048 0 4.096 2.048s2.048 0 4.096 2.048h20.48v-8.192z" fill="#FC9D80" p-id="45139"></path><path d="M256 573.44l6.144 18.432c0-6.144-2.048-12.288-6.144-18.432zM249.856 411.648H245.76c0 10.24 0 18.432 2.048 28.672 0-10.24 2.048-18.432 2.048-28.672zM251.904 546.816c0-6.144-2.048-12.288-2.048-18.432 0 6.144 2.048 12.288 2.048 18.432z" fill="#323232" p-id="45140"></path><path d="M733.184 565.248c0 2.048 0 2.048 0 0 2.048 2.048 2.048 2.048 4.096 2.048 2.048 4.096 4.096 6.144 8.192 10.24v2.048c4.096 4.096 8.192 10.24 12.288 14.336 2.048-6.144 4.096-14.336 6.144-20.48-4.096 0-10.24 0-14.336-2.048 4.096 2.048 8.192 2.048 14.336 2.048 16.384-53.248 22.528-108.544 16.384-161.792v-10.24c0-6.144-2.048-14.336-2.048-20.48v-96.256c0-24.576-6.144-49.152-16.384-71.68s-24.576-40.96-40.96-59.392c-18.432-16.384-36.864-30.72-59.392-38.912-22.528-10.24-47.104-14.336-73.728-14.336-30.72-8.192-63.488-8.192-100.352 0h2.048c-4.096 0-6.144 2.048-10.24 2.048h-2.048c4.096 0 6.144-2.048 10.24-2.048h-51.2c-24.576 0-49.152 4.096-73.728 14.336-22.528 10.24-43.008 22.528-59.392 38.912-18.432 16.384-30.72 36.864-40.96 59.392-10.24 22.528-16.384 47.104-16.384 71.68l-2.048 104.448h2.048c2.048-24.576 10.24-53.248 20.48-81.92v-20.48c0-45.056 18.432-83.968 51.2-116.736 14.336-14.336 28.672-24.576 45.056-32.768 18.432-10.24 40.96-14.336 63.488-16.384h55.296c-6.144 2.048-10.24 4.096-14.336 6.144 12.288-2.048 24.576-4.096 36.864-4.096h8.192c22.528 0 40.96 4.096 61.44 12.288 36.864 18.432 61.44 59.392 61.44 104.448 0-45.056-24.576-83.968-61.44-104.448-20.48-6.144-40.96-10.24-61.44-12.288-4.096 0-8.192 2.048-10.24 2.048-12.288 0-22.528 2.048-34.816 4.096-10.24 6.144-22.528 12.288-30.72 22.528-24.576 22.528-36.864 53.248-36.864 88.064V391.168h-26.624L266.24 389.12h-2.048v2.048h2.048-2.048V352.256c0-2.048 2.048-4.096 2.048-8.192V307.2c-10.24 28.672-16.384 57.344-18.432 81.92H245.76v2.048h-2.048V389.12H139.264c-10.24 0-16.384 8.192-16.384 20.48h120.832v2.048h2.048l4.096-2.048H245.76v-2.048h4.096v-2.048 4.096l26.624 2.048c-6.144-2.048-12.288-2.048-20.48-2.048 8.192 0 14.336 0 22.528 2.048 28.672 6.144 53.248 24.576 63.488 49.152-12.288-22.528-34.816-43.008-63.488-49.152h-26.624c-2.048 10.24-2.048 18.432-2.048 28.672 0 34.816 0 61.44 2.048 88.064 2.048 16.384 6.144 30.72 8.192 45.056-4.096-8.192-6.144-18.432-8.192-26.624 2.048 8.192 4.096 18.432 6.144 26.624l6.144 18.432c10.24-4.096 22.528-14.336 32.768-26.624 2.048 0 2.048 0 4.096-2.048l2.048-2.048c14.336-18.432 26.624-40.96 22.528-65.536v-2.048c4.096 0 12.288-2.048 22.528-6.144v2.048c20.48-8.192 47.104-24.576 65.536-61.44 67.584 61.44 161.792 79.872 268.288 34.816 10.24-24.576 34.816-45.056 63.488-51.2h2.048c-30.72 6.144-55.296 26.624-65.536 51.2 12.288-4.096 22.528-10.24 34.816-16.384 6.144 59.392-10.24 81.92 16.384 118.784zM614.4 155.648c-2.048-2.048-2.048-4.096-4.096-6.144-10.24-12.288-24.576-20.48-40.96-26.624-2.048 0-4.096-2.048-4.096-2.048h-2.048c-12.288-6.144-26.624-8.192-40.96-8.192 16.384 0 28.672 2.048 43.008 8.192h22.528c22.528 0 43.008 4.096 61.44 10.24-16.384-12.288-34.816-22.528-53.248-28.672h2.048c18.432 6.144 36.864 16.384 53.248 28.672 18.432 8.192 36.864 20.48 55.296 36.864 16.384 16.384 28.672 34.816 38.912 55.296 8.192 18.432 12.288 36.864 12.288 57.344V305.152l2.048 83.968h-114.688v-149.504c0-32.768-10.24-59.392-30.72-83.968z m30.72 235.52l2.048 18.432h-2.048v-18.432zM593.92 163.84c20.48 20.48 30.72 45.056 30.72 75.776V389.12h-204.8v-149.504c0-30.72 10.24-55.296 30.72-75.776s45.056-30.72 71.68-30.72S575.488 143.36 593.92 163.84z m157.696 247.808c0-2.048 2.048-2.048 0 0l10.24-2.048c-4.096 0-6.144 0-10.24 2.048 4.096 20.48 6.144 43.008 6.144 65.536 0-20.48-2.048-43.008-6.144-65.536z" fill="#323232" p-id="45141"></path><path d="M757.76 303.104v-18.432-4.096c-2.048-20.48-6.144-38.912-12.288-57.344-8.192-20.48-22.528-36.864-38.912-55.296-18.432-16.384-36.864-28.672-55.296-36.864C675.84 153.6 696.32 180.224 716.8 215.04c16.384 30.72 30.72 59.392 40.96 88.064zM313.344 235.52c36.864-57.344 88.064-96.256 151.552-108.544 6.144-2.048 10.24-4.096 14.336-6.144h-53.248c-10.24 4.096-20.48 10.24-30.72 14.336-38.912 10.24-83.968 67.584-112.64 131.072 28.672-63.488 71.68-120.832 112.64-131.072 10.24-6.144 20.48-10.24 30.72-14.336-22.528 2.048-43.008 6.144-63.488 16.384-16.384 8.192-30.72 18.432-45.056 32.768C284.672 202.752 266.24 241.664 266.24 286.72v55.296c10.24-36.864 26.624-73.728 47.104-106.496z" fill="#5F97F7" p-id="45142"></path><path d="M645.12 389.12h104.448c-8.192-38.912-18.432-77.824-34.816-112.64 16.384 34.816 28.672 73.728 34.816 112.64h10.24l-2.048-83.968c-10.24-28.672-24.576-59.392-40.96-88.064-20.48-36.864-43.008-63.488-67.584-83.968-18.432-8.192-38.912-10.24-61.44-10.24h-18.432c14.336 6.144 28.672 14.336 40.96 26.624 2.048 2.048 2.048 4.096 4.096 6.144 20.48 24.576 30.72 51.2 30.72 83.968V389.12zM315.392 235.52c-20.48 32.768-36.864 69.632-49.152 108.544V389.12h133.12v-149.504c0-34.816 12.288-65.536 36.864-90.112 10.24-10.24 20.48-16.384 30.72-22.528-63.488 12.288-114.688 51.2-151.552 108.544z" fill="#5F97F7" p-id="45143"></path><path d="M419.84 239.616V389.12h204.8v-149.504C624.64 208.896 614.4 184.32 593.92 163.84s-45.056-30.72-71.68-30.72S471.04 143.36 450.56 163.84s-30.72 45.056-30.72 75.776z" fill="#323232" fill-opacity=".38" p-id="45144"></path><path d="M268.288 905.216v-2.048c4.096-2.048 6.144-4.096 8.192-6.144 2.048-4.096 4.096-8.192 10.24-8.192h2.048c18.432-10.24 32.768-18.432 57.344-30.72v135.168c53.248 18.432 108.544 28.672 165.888 28.672 63.488 0 122.88-12.288 178.176-32.768V862.208c20.48 10.24 32.768 18.432 47.104 26.624 4.096 0 6.144 2.048 8.192 4.096 6.144 4.096 14.336 8.192 22.528 14.336v45.056c16.384-10.24 34.816-20.48 49.152-32.768-40.96-36.864-92.16-69.632-159.744-100.352H655.36v2.048c-2.048 0-2.048 0-4.096-2.048 0 0-4.096 0-4.096 4.096-45.056 94.208-182.272 106.496-249.856 16.384-4.096-4.096-6.144-8.192-8.192-10.24s-4.096-4.096-4.096-6.144c-2.048-4.096-4.096-4.096-6.144-4.096-69.632 32.768-124.928 65.536-167.936 106.496l18.432 12.288c12.288 8.192 24.576 16.384 38.912 24.576v-57.344z" fill="#FFFBF4" p-id="45145"></path><path d="M727.04 960.512c0-2.048 2.048-4.096 4.096-6.144-2.048-2.048-4.096-4.096-4.096-6.144V925.696c0-2.048 2.048-4.096 4.096-6.144-2.048-2.048-4.096-4.096-4.096-6.144V901.12c0-6.144 4.096-10.24 10.24-10.24-14.336-8.192-28.672-16.384-47.104-26.624V991.232c12.288-4.096 24.576-10.24 36.864-16.384v-14.336zM276.48 962.56v-2.048c0-2.048 2.048-4.096 4.096-6.144-2.048-2.048-4.096-4.096-4.096-6.144V925.696c0-2.048 2.048-4.096 4.096-6.144-2.048-2.048-4.096-4.096-4.096-6.144V899.072c-2.048 2.048-6.144 4.096-8.192 6.144V962.56c2.048 2.048 6.144 2.048 8.192 4.096V962.56c0 2.048 0 0 0 0zM288.768 890.88c4.096 2.048 8.192 6.144 8.192 10.24v8.192c0 4.096-2.048 6.144-6.144 8.192 4.096 2.048 6.144 4.096 6.144 8.192v18.432c0 4.096-2.048 6.144-6.144 8.192 4.096 2.048 6.144 4.096 6.144 8.192v12.288c16.384 8.192 32.768 14.336 49.152 20.48V860.16c-22.528 12.288-38.912 20.48-57.344 30.72zM745.472 894.976c2.048 2.048 2.048 4.096 2.048 6.144v10.24c0 2.048-2.048 4.096-4.096 6.144 4.096 2.048 4.096 6.144 4.096 8.192v20.48c0 2.048-2.048 4.096-4.096 6.144 4.096 2.048 4.096 6.144 4.096 8.192v2.048c6.144-4.096 14.336-8.192 20.48-10.24v-45.056c-8.192-2.048-16.384-6.144-22.528-12.288z" fill="#5F97F7" p-id="45146"></path><path d="M290.816 952.32c4.096-2.048 6.144-6.144 6.144-8.192v-18.432c0-4.096-2.048-6.144-6.144-8.192 4.096-2.048 6.144-6.144 6.144-8.192V901.12c0-4.096-4.096-8.192-8.192-10.24-2.048 0-4.096 2.048-6.144 2.048 2.048-2.048 2.048-2.048 4.096-2.048-4.096 0-6.144 2.048-8.192 6.144h-2.048V909.312c0 4.096 2.048 6.144 6.144 8.192l-2.048 2.048c-2.048 2.048-4.096 4.096-4.096 6.144V944.128c0 4.096 2.048 6.144 6.144 8.192l-2.048 2.048c-2.048 2.048-4.096 4.096-4.096 6.144v2.048c6.144 4.096 14.336 6.144 20.48 10.24v-12.288c0-4.096-2.048-6.144-6.144-8.192zM741.376 954.368c4.096-4.096 6.144-6.144 6.144-8.192v-18.432c0-4.096-2.048-6.144-6.144-8.192h2.048c4.096-2.048 4.096-6.144 4.096-6.144V901.12c0-2.048 0-4.096-2.048-6.144-2.048-2.048-4.096-4.096-8.192-4.096-6.144 0-10.24 4.096-10.24 10.24v8.192c0 4.096 2.048 6.144 6.144 8.192l-2.048 2.048c-2.048 2.048-4.096 4.096-4.096 6.144V944.128c0 4.096 2.048 6.144 6.144 8.192l-2.048 2.048c-2.048 2.048-4.096 4.096-4.096 6.144V972.8c6.144-4.096 14.336-6.144 20.48-10.24v-2.048s-2.048-4.096-6.144-6.144z" fill="#FFFFFF" p-id="45147"></path></svg>