<svg t="1774363225822" class="icon" viewBox="0 0 1024 1024" version="1.1" xmlns="http://www.w3.org/2000/svg" p-id="61757" width="200" height="200"><path d="M810.666667 341.333333a149.333333 149.333333 0 0 0-138.666667-149.333333 192 192 0 0 0-320 0 149.333333 149.333333 0 0 0-64 278.4L512 917.333333l223.146667-446.293333A149.333333 149.333333 0 0 0 810.666667 341.333333z m-448-64a64 64 0 0 1 42.666666 17.066667 106.666667 106.666667 0 0 1 213.333334 0 64 64 0 0 1 42.666666-17.066667 64 64 0 1 1-61.226666 81.493334 106.666667 106.666667 0 0 1-176.213334 0A64 64 0 1 1 362.666667 277.333333z m29.866666 210.133334a158.293333 158.293333 0 0 0 39.893334-14.08 192 192 0 0 0 159.146666 0 158.293333 158.293333 0 0 0 39.893334 14.08L512 726.613333z" p-id="61758"></path></svg>