<svg t="1774362749680" class="icon" viewBox="0 0 1024 1024" version="1.1" xmlns="http://www.w3.org/2000/svg" p-id="32102" width="200" height="200"><path d="M908.373333 251.306667l-426.666666 426.666666a42.496 42.496 0 0 1-60.16 0l-120.746667-120.746666a42.496 42.496 0 1 1 60.16-60.16l90.453333 90.453333 396.373334-396.373333a42.496 42.496 0 0 1 60.16 0c17.066667 16.64 17.066667 43.52 0.426666 60.16zM512 853.333333c-200.96 0-361.813333-174.506667-339.2-379.733333 16.64-150.186667 133.12-273.493333 282.026667-298.24 77.226667-12.8 150.613333 0.853333 212.906666 33.28a42.794667 42.794667 0 1 0 39.68-75.946667c-62.72-32-133.546667-49.493333-209.066666-47.36-219.306667 6.826667-401.493333 185.173333-412.586667 404.053334C73.386667 735.573333 268.8 938.666667 512 938.666667c51.2 0 99.84-8.96 145.493333-25.6 29.013333-10.666667 37.12-48.213333 14.933334-70.4a41.813333 41.813333 0 0 0-44.373334-9.813334c-36.266667 13.226667-75.52 20.48-116.053333 20.48z m298.666667-213.333333h-85.333334c-23.466667 0-42.666667 19.2-42.666666 42.666667s19.2 42.666667 42.666666 42.666666h85.333334v85.333334c0 23.466667 19.2 42.666667 42.666666 42.666666s42.666667-19.2 42.666667-42.666666v-85.333334h85.333333c23.466667 0 42.666667-19.2 42.666667-42.666666s-19.2-42.666667-42.666667-42.666667h-85.333333v-85.333333c0-23.466667-19.2-42.666667-42.666667-42.666667s-42.666667 19.2-42.666666 42.666667v85.333333z" fill="#323232" p-id="32103"></path></svg>