<svg t="1774434922421" class="icon" viewBox="0 0 1024 1024" version="1.1" xmlns="http://www.w3.org/2000/svg" p-id="4525" width="200" height="200"><path d="M1008.64 513.536c0 272.896-221.184 494.08-494.08 494.08C241.664 1007.104 20.48 786.432 20.48 513.536S241.664 19.456 514.56 19.456 1008.64 240.64 1008.64 513.536" fill="#FFFFFF" p-id="4526"></path><path d="M958.464 612.352c-19.456 86.016-62.976 162.304-122.88 222.72-82.944 82.944-197.12 134.144-323.584 134.144-126.464 0-241.152-51.2-323.584-134.144-32.256-32.256-59.392-68.608-80.896-109.568 6.144 0.512 12.288 1.024 18.944 1.024 19.968 35.328 45.056 68.096 73.216 96.768 79.872 79.872 190.464 129.024 312.32 129.024 121.856 0 232.448-49.664 312.32-129.024 57.344-57.856 99.328-131.072 118.272-212.992-2.048-0.512-4.096-0.512-6.144-1.024-18.944 80.896-59.904 153.088-116.224 209.408-78.848 78.848-187.904 127.488-308.224 127.488s-229.376-48.64-308.224-127.488c-27.136-27.136-51.2-58.368-70.656-92.16h4.608c18.944 32.768 41.984 62.976 68.608 89.6 78.336 78.336 186.368 126.464 305.152 126.464 119.296 0 227.328-48.64 305.152-126.464 56.32-56.32 96.768-127.488 115.2-207.36-41.984-4.608-83.968-5.632-127.488-3.072-88.064 5.632-172.544 26.112-258.048 47.104-95.232 23.552-189.44 46.08-287.232 55.296-54.272 4.608-107.52 5.632-160.256 1.024l-2.56-5.12c167.936 10.24 306.176-27.136 446.464-65.024 132.096-35.328 264.192-65.536 420.352-45.056l-4.608 18.432zM480.256 377.856c140.288-37.888 278.528-69.632 446.464-59.392l-2.56-5.12c-52.736-4.096-105.984-3.584-160.256 1.024-97.792 9.216-192 31.232-287.232 55.296-85.504 20.992-169.984 41.472-258.048 47.104-43.52 2.56-86.016 2.048-127.488-2.56 18.432-79.872 59.392-151.552 115.2-207.36C284.672 128.512 392.704 80.384 512 80.384c119.296 0 227.328 48.64 305.152 126.464 27.648 27.648 51.712 58.88 71.168 93.184h4.608c-19.968-35.328-44.544-68.096-72.704-96.256-78.848-78.848-187.904-127.488-308.224-127.488s-229.376 48.64-308.224 127.488c-55.808 56.32-97.28 128.512-115.712 209.408-2.048-0.512-4.096-0.512-6.144-1.024 18.944-82.432 60.416-155.648 118.272-213.504 79.872-79.872 190.464-129.024 312.32-129.024s232.448 49.664 312.32 129.024c29.696 29.696 55.296 63.488 75.776 101.376 6.144 0.512 12.288 1.024 18.432 1.024-22.016-41.984-50.176-79.872-82.944-113.152-82.944-82.944-197.12-134.144-323.584-134.144S271.36 104.96 188.928 187.904a458.01984 458.01984 0 0 0-122.88 222.72l-5.632 18.432c1.024 0 1.024 0 2.048 0.512 5.632 1.024 10.752 1.024 15.872 2.048 147.968 14.336 274.944-19.968 401.92-53.76m-163.328 338.432c50.688 48.128 119.296 77.824 194.56 77.824 115.712 0 216.064-69.632 259.072-169.984l-12.288 1.536c-43.008 93.184-137.216 158.208-247.296 158.208-69.632 0-132.608-26.112-181.248-69.12-3.072 0.512-7.68 1.024-12.8 1.536M706.56 306.176c-50.688-48.128-119.296-77.824-194.56-77.824-115.712 0-216.064 70.144-259.072 169.984l12.288-1.536c43.008-93.184 137.216-158.208 247.296-158.208 69.632 0 132.608 26.112 180.736 69.12 4.096-0.512 8.704-0.512 13.312-1.536m-33.792 5.12v-1.024c-3.072-2.56-6.144-4.608-9.216-7.168V312.32c3.072 0 6.144 0 9.216-1.024M359.936 381.44V303.616c-3.072 2.56-6.144 4.608-9.216 7.168v72.704c3.584-1.024 6.656-1.536 9.216-2.048m48.64-10.752V275.968c-3.072 1.536-6.144 2.56-9.216 4.096v92.672c3.072-0.512 6.144-1.536 9.216-2.048m-120.32 13.824c-2.048 3.584-4.096 7.168-5.632 10.752 2.048-0.512 4.096-0.512 5.632-1.024v-9.728z m143.872-19.456V266.752l-9.216 3.072v97.28c3.072-0.512 6.144-1.536 9.216-2.048m216.576-49.664v-22.016c-3.072-2.048-6.144-4.096-9.216-5.632V317.44c3.072-0.512 6.144-1.024 9.216-2.048M312.32 390.656v-40.96l-9.216 12.288v30.208c2.56-1.024 5.632-1.024 9.216-1.536m24.064-4.608V323.584c-3.072 3.072-6.144 5.632-9.216 9.216v55.296c3.072-1.024 6.144-1.536 9.216-2.048m240.64-55.808V262.656c-3.072-1.024-6.144-1.536-9.216-2.56v72.192c2.56-0.512 5.632-1.024 9.216-2.048m23.552-5.12V269.824c-3.072-1.024-6.144-2.56-9.216-3.072v60.416c3.072-0.512 6.144-1.536 9.216-2.048m-143.872 33.792V260.096c-3.072 1.024-6.144 1.536-9.216 2.56v98.816c3.072-1.024 6.144-1.536 9.216-2.56m95.744-23.04V257.536c-3.072-0.512-6.144-1.024-9.216-1.024v81.92c3.072-1.024 6.144-1.536 9.216-2.56m72.192-15.36v-39.936c-3.072-1.536-6.144-3.072-9.216-4.096v46.08c3.072-1.024 6.144-1.536 9.216-2.048m-96.256 20.992v-87.04c-3.072-0.512-6.144-0.512-9.216-0.512v89.6c3.584-0.512 6.144-1.536 9.216-2.048m-54.784 13.312l7.168-1.536V256.512c-3.072 0.512-6.144 1.024-9.216 1.024v97.792l2.048-0.512z m31.232-7.68V254.464c-3.072 0-6.144 0.512-9.216 0.512v94.72c2.56-1.024 5.632-1.536 9.216-2.56m-120.32 29.184V288.256c-3.072 2.048-6.144 3.584-9.216 5.632v84.48c2.56-1.024 6.144-1.536 9.216-2.048m230.912 275.456v94.72c3.072-1.536 6.144-2.56 9.216-4.096v-92.672c-3.072 1.024-6.144 1.536-9.216 2.048m24.064-5.632v88.064c3.072-2.048 6.144-3.584 9.216-5.632v-84.48c-3.072 1.024-6.144 2.048-9.216 2.048m24.064-5.12v77.824c3.072-2.56 6.144-4.608 9.216-7.168v-72.192c-3.072 0.512-6.144 1.536-9.216 1.536m-72.192 16.384v97.792l9.216-3.072v-97.28c-3.072 1.024-6.144 2.048-9.216 2.56m96.256-20.992v62.464c3.072-3.072 6.144-5.632 9.216-9.216V634.88l-9.216 1.536m-120.32 27.136v98.816c3.072-1.024 6.144-1.536 9.216-2.56v-98.816c-3.072 1.024-6.144 1.536-9.216 2.56m168.448-25.6c2.048-3.584 4.096-7.168 5.632-10.752-2.048 0.512-4.096 0.512-5.632 1.024v9.728z m-24.064-5.632v40.96l9.216-12.288v-30.208c-3.072 0.512-6.144 0.512-9.216 1.536m-192.512 43.008V768c3.072 0 6.144-0.512 9.216-0.512v-94.72c-3.072 1.024-5.632 1.536-9.216 2.56m-72.192 16.896v68.096c3.072 1.024 6.144 1.536 9.216 2.56v-72.192c-2.56 0-5.632 1.024-9.216 1.536m-24.064 5.12V752.64c3.072 1.024 6.144 2.56 9.216 3.072v-59.904c-3.072 0-6.144 1.024-9.216 1.536m-23.552 4.608v40.448c3.072 1.536 6.144 3.072 9.216 4.096v-46.08c-3.072 0.512-6.144 1.536-9.216 1.536m-24.576 5.12v22.016c3.072 2.048 6.144 4.096 9.216 5.632v-29.184c-2.56 0-6.144 1.024-9.216 1.536m-23.552 4.096v1.024c3.072 2.56 6.144 4.608 9.216 7.168v-9.216c-3.072 0-6.144 0.512-9.216 1.024m199.168-43.52l-7.168 1.536v97.28c3.072-0.512 6.144-1.024 9.216-1.024v-97.792h-2.048zM495.104 680.96v86.528c3.072 0 6.144 0.512 9.216 0.512v-89.6c-3.072 1.024-6.144 2.048-9.216 2.56m-24.064 5.632v78.336c3.072 0.512 6.144 1.024 9.216 1.024v-81.92c-3.072 1.536-6.144 1.536-9.216 2.56M1008.64 512c0 273.92-222.72 496.64-496.64 496.64S15.36 785.92 15.36 512 238.08 15.36 512 15.36s496.64 222.72 496.64 496.64m-10.752 0c0-268.8-217.6-485.888-485.888-485.888C243.2 26.112 26.112 243.2 26.112 512c0 268.8 217.6 485.888 485.888 485.888 268.288 0 485.888-217.088 485.888-485.888" fill="#398DFF" p-id="4527"></path><path d="M288.256 492.032c18.432 0 36.864-0.512 55.808-0.512 28.16 0 43.52 11.776 45.056 34.816-2.048 23.552-14.336 35.328-38.4 35.328-6.656-0.512-23.04-0.512-48.128 0H296.96c0 1.024 0.512 4.096 1.024 9.216 1.024 12.8 2.048 19.968 2.048 23.04-1.536 7.168-5.12 11.776-11.776 12.8-4.096 0-6.144-2.56-5.632-8.704 1.024-13.824 1.536-27.648 2.048-42.496 0.512-14.848 0-29.696-0.512-45.056-2.56-2.56-7.68-2.56-14.848-0.512-0.512 0-1.024-0.512-1.024-1.536 0.512-8.704 7.168-14.336 19.968-16.384z m87.04 34.304c-0.512-14.336-10.752-22.528-30.208-25.6-25.088 0.512-41.472 2.048-48.64 4.608-0.512 2.56-0.512 11.264-0.512 25.088 0 11.264 0.512 17.408 2.048 18.944 0 1.024 4.608 1.536 13.312 2.048 9.216 0.512 22.528 0 39.424-1.024 15.36-1.536 24.064-9.216 24.576-24.064zM435.2 562.176c-4.608 17.408-8.192 28.672-10.24 33.792-0.512 2.56-2.048 4.608-4.608 4.608-5.12 1.536-9.728 1.024-13.824-1.024-1.024-1.024-1.536-2.048-0.512-3.072 16.384-26.112 28.672-59.392 37.376-98.816v-4.608c-0.512-2.048-0.512-4.096 0-5.632 4.608-8.192 10.752-9.216 18.432-3.072 0.512 4.096 2.56 7.68 5.12 11.264 12.8 21.504 23.04 36.864 31.744 47.104 6.656-1.024 12.288-3.584 17.408-6.656 0 0.512 0.512 0.512 1.024 0.512-1.536 7.168-4.608 12.8-9.728 16.896 7.168 10.24 15.36 16.896 25.088 21.504 0.512 1.024 1.024 1.536 0.512 2.56-3.584 3.584-9.216 6.656-16.384 8.192h-1.024c-2.048 0.512-3.584-0.512-4.608-2.56-5.632-6.656-12.8-16.384-20.48-30.208-18.432 0-36.864 3.584-55.296 9.216z m50.688-18.432c-3.584-4.096-8.704-12.8-16.384-25.088-7.168-12.288-11.776-19.968-13.312-23.04-2.048-0.512-3.072-0.512-3.072 0.512-6.144 26.624-11.264 45.056-15.36 56.32 6.144 0 13.824-0.512 22.016-2.048 7.68-1.536 16.384-3.584 26.112-6.656zM534.528 497.152c-6.656-17.92 3.072-30.72 28.16-38.912 2.048-0.512 7.68-1.536 16.384-2.56 12.288-2.048 20.992-4.608 25.6-7.168 0.512 0 1.536-1.024 3.072-2.56l2.048-2.048c0.512 0.512 1.536 1.024 2.048 2.048 2.048 8.704 0.512 14.336-5.12 16.384-1.536 0.512-6.144 1.024-13.312 1.536-14.336 0.512-23.552 1.536-28.672 3.072-16.896 5.632-23.552 14.848-19.968 26.624 5.12 10.752 17.92 12.8 39.424 7.168 32.256-9.216 51.712-5.12 58.368 13.312 7.168 22.016-5.12 37.888-37.376 47.616-38.4 10.752-59.904 6.144-64-13.312l2.048-1.536c0 0.512 1.024 1.024 3.072 1.536 18.432 8.192 37.376 9.216 56.32 3.584 22.528-7.168 31.744-18.432 27.648-33.792-4.096-11.776-18.432-14.336-42.496-7.68-29.184 8.192-47.104 4.096-53.248-13.312zM643.584 461.824c-8.704-16.896-0.512-30.72 24.064-41.984 2.048-1.024 7.168-2.048 15.872-4.608 12.288-3.584 20.48-6.656 25.088-9.728 0.512 0 1.536-1.024 3.072-3.072 0.512-1.024 1.024-1.536 1.536-2.56 0.512 0.512 1.536 1.024 2.56 1.536 3.072 8.192 2.048 13.824-3.072 16.896-1.536 0.512-5.632 1.536-13.312 3.072-13.824 2.048-23.552 4.096-28.16 6.144-16.384 7.68-21.504 16.896-16.896 28.672 6.144 9.728 19.456 10.752 39.936 2.56 31.232-12.8 50.688-10.752 59.392 6.656 9.728 20.992-1.024 38.4-31.744 51.712-36.864 14.848-58.88 12.8-65.024-6.144l2.048-1.536c0 0.512 1.024 1.024 3.072 1.024 18.944 6.144 37.888 5.12 56.32-3.072 21.504-9.216 29.696-21.504 23.552-36.864-5.632-11.264-19.968-12.288-43.008-2.56-29.184 12.8-47.104 10.24-55.296-6.144z" fill="#398DFF" p-id="4528"></path></svg>