<svg t="1774435054905" class="icon" viewBox="0 0 1025 1024" version="1.1" xmlns="http://www.w3.org/2000/svg" p-id="5705" width="200" height="200"><path d="M982.054901 312.171538C872.643978 52.57308 572.729812-69.45853 312.806008 40.37263A506.277996 506.277996 0 0 0 104.530775 202.340378 512.093544 512.093544 0 0 0 5.110666 439.747574l-2.711211 23.302859a508.162288 508.162288 0 0 0 37.69939 246.286412c109.410922 259.598458 409.392869 381.630068 669.262448 271.798908a506.4 506.4 0 0 0 208.275233-161.967748c107.743527-140.901638 138.271764-332.828269 64.418375-506.996467zM699.912722 955.067459c-246.042403 103.175137-529.851976-12.20045-633.704915-258.486862-103.310697-246.286412 12.769804-529.187729 258.812207-632.918664 178.845037-75.439448 385.452875-36.045551 524.849792 99.298105a495.717829 495.717829 0 0 1 108.868679 159.188757c103.310697 245.730614-12.20045 529.187729-258.825763 632.918664z m0 0" fill="#f35155" p-id="5706"></path><path d="M942.633892 328.818374C842.657984 90.286026 567.727627-21.198973 329.439288 79.197172a464.972695 464.972695 0 0 0-191.031931 148.099904c-98.308513 129.256987-126.071314 305.09258-58.873948 464.837135 100.531706 237.97655 375.448507 350.017347 613.20816 249.621202a468.077032 468.077032 0 0 0 249.892323-612.937039z m-604.844074 604.600065C103.419179 838.024478-8.770735 570.6584 86.785899 336.030195a459.726502 459.726502 0 0 1 598.160938-250.787022c234.384195 95.963315 346.574109 362.773595 251.044588 597.415356-96.641118 234.072406-363.790299 346.126759-598.174495 250.787022z m0 0" fill="#f35155" p-id="5707"></path><path d="M421.620464 855.227112l-26.651205 3.321234c0.542242 0.555798-20.55098-14.979441-20.55098-14.979442l-5.002184 24.956698-22.218375 14.423643 23.88577 12.20045 7.76762 24.400899 19.995181-17.744876 26.664761 0.542242-11.671764-23.289303z m178.939929-8.323418l-19.995181 18.300675-26.095407-0.555799 10.546611 23.858658-9.990812 24.956697 26.108962-3.334789 20.55098 16.091037 6.100225-25.512496 22.218374-14.91166-22.774172-12.756248z m-10.004368-675.633794l25.553164-6.100225 22.706392 13.935625 3.33479-25.512496 21.106778-16.077482-24.997366-10.546611-9.489239-23.845101-18.273562 18.788693-26.664761 1.61317 13.339159 22.191263z m-332.123354 136.468808a323.33903 323.33903 0 0 0-69.976358 173.666624l8.336974-3.890588a321.644523 321.644523 0 0 1 21.689689-85.403148c65.435079-161.493286 248.726502-239.142371 410.341793-174.235978a332.692708 332.692708 0 0 1 76.11725 43.257372l8.336974-3.877032c-139.410472-111.498555-342.683521-88.751494-454.873434 50.48275z m-57.775908 30.501124l-23.872213-11.088853-8.336974-24.970254-17.771989 19.412272-25.539608 1.667394 12.20045 23.302859-7.225377 26.068295 25.553164-5.544427c-0.555798 0 20.55098 14.979441 20.550979 14.979441l3.33479-27.179891z m74.422744-123.143206l16.673947 21.689689 11.10241-24.956698 24.400899-10.546611-18.883585-17.744876-0.623578-26.678317-23.329971 13.854289-24.997366-6.642468 4.446386 26.068295-14.410087 22.733504z m171.633215-50.469193l19.995182-18.314231 26.095406 0.555798-9.990813-23.858657 9.990813-24.956698-26.651205 3.890588-20.605204-16.091037-5.557982 25.471827-22.218375 14.911661 22.774173 12.756248zM762.677258 785.874333l-16.660392-20.510311-11.115965 24.400899-24.400899 9.990813 18.842916 17.189078 0.555799 27.179891 22.774172-13.867845 24.98381 6.656023-4.419274-26.095406 14.396531-22.719949z m134.964086-148.099903l-24.997366 5.544426-21.093221-14.410087-2.792548 26.624093-20.537424 16.63328 22.774173 11.102409 8.879216 25.512496 17.771989-19.968069 25.553164-1.111597-12.20045-23.302859z m-133.852489 73.772052a323.176357 323.176357 0 0 0 69.935689-173.612399l-8.323418 3.877031a322.132541 322.132541 0 0 1-21.689689 85.403148c-64.87928 161.439062-248.753614 239.657501-410.38246 174.195311a332.123354 332.123354 0 0 1-76.090139-43.270929l-8.323418 3.877032c138.854674 111.498555 342.683521 88.751494 454.873435-50.48275z m0 0" fill="#f35155" p-id="5708"></path><path d="M686.58712 268.344812c-132.740893-96.519113-319.35355-67.11603-415.994668 65.46219a298.233216 298.233216 0 0 0-54.427562 135.39788l9.489239-3.877031c21.106778-140.34584 142.189464-244.008995 284.92117-245.174816a293.719049 293.719049 0 0 1 167.119049 52.082364zM335.024383 749.815226c133.296691 96.519113 319.35355 67.671828 415.994668-65.462191a299.005911 299.005911 0 0 0 54.427562-134.787857l-9.489239 3.890588a288.743977 288.743977 0 0 1-284.324703 245.161259 293.732605 293.732605 0 0 1-167.173274-52.150144z" fill="#f35155" p-id="5709"></path><path d="M146.961228 614.593575l40.668166-20.862769 81.187215 64.174366 1.057372-0.542243-42.904915-83.776421 26.149631-13.393383 60.053325 117.205654-36.601349 18.802249-87.816126-67.590492-1.057373 0.528686 45.711019 89.185288-26.312304 13.556055zM375.299423 647.697462a90.662898 90.662898 0 0 1-20.876325 7.930292 37.197816 37.197816 0 0 1-18.449791-0.13556 38.973659 38.973659 0 0 1-16.484163-9.895921q-7.8354-7.496499-14.911661-21.350787t-8.608095-24.590684a38.892323 38.892323 0 0 1 1.586058-19.154706 37.25204 37.25204 0 0 1 10.641504-15.047221 91.232252 91.232252 0 0 1 18.612463-12.322455 90.269772 90.269772 0 0 1 20.781433-7.876068 37.170704 37.170704 0 0 1 18.368455 0.189785 38.79743 38.79743 0 0 1 16.484163 9.882364q7.821844 7.496499 14.911661 21.350787t8.608095 24.590685a38.892323 38.892323 0 0 1-1.586058 19.154706 37.035143 37.035143 0 0 1-10.58728 15.020109 89.036171 89.036171 0 0 1-18.490459 12.254674z m-9.489239-18.571796a34.012143 34.012143 0 0 0 9.041889-6.344234 14.152522 14.152522 0 0 0 3.944812-7.889624 24.08911 24.08911 0 0 0-1.220045-10.573723 92.994539 92.994539 0 0 0-6.113781-14.342306 86.84009 86.84009 0 0 0-8.133633-13.312047 26.149631 26.149631 0 0 0-8.133633-7.144041 14.599872 14.599872 0 0 0-8.702987-1.61317 31.490716 31.490716 0 0 0-10.383939 3.511018 32.249855 32.249855 0 0 0-9.00122 6.42557 14.477867 14.477867 0 0 0-3.84992 8.052297 24.60424 24.60424 0 0 0 1.260713 10.655059 93.211436 93.211436 0 0 0 6.127337 14.342307 86.175843 86.175843 0 0 0 8.133633 13.312046 24.970254 24.970254 0 0 0 7.970961 7.116929 14.206746 14.206746 0 0 0 8.608095 1.450498 33.239448 33.239448 0 0 0 10.41105-3.605911zM425.280599 529.095535l20.862769 40.668165a45.900803 45.900803 0 0 0 3.809251 6.35779 9.231674 9.231674 0 0 0 3.700803 3.117893 7.523611 7.523611 0 0 0 4.378606 0.311789 22.869065 22.869065 0 0 0 5.734212-2.196081 39.665018 39.665018 0 0 0 7.211821-4.541278l9.69258 18.978477c-1.762287 1.192933-3.646579 2.399422-5.666431 3.660135s-4.066817 2.399422-6.181562 3.483906a77.97443 77.97443 0 0 1-15.521683 6.249342 23.262191 23.262191 0 0 1-12.20045 0.257565 21.689688 21.689688 0 0 1-10.112817-6.547575 62.208738 62.208738 0 0 1-9.285898-14.003405l-21.865917-42.755798-12.458015 6.384902-9.868808-19.249599 12.458015-6.384902-11.075297-21.689688 25.444715-13.013813 11.075298 21.689688 19.65628-10.072149 9.868808 19.249599zM535.789561 446.010472q11.563315-5.937552 20.55098-6.371346a30.352008 30.352008 0 0 1 16.335047 3.565242 42.742242 42.742242 0 0 1 13.447606 11.969997 126.681336 126.681336 0 0 1 11.631096 18.788693 113.870864 113.870864 0 0 1 7.848956 19.222486 44.978991 44.978991 0 0 1 1.911404 18.04311 33.090331 33.090331 0 0 1-6.29001 16.036813q-5.422422 7.442274-16.958625 13.379827-13.000257 6.642467-21.255895 6.303565a24.007774 24.007774 0 0 1-14.179634-4.988628l23.262191 45.372117-25.431159 13.040925-64.038805-124.973273 25.431159-12.973145 5.625763 10.980404a26.800321 26.800321 0 0 1 4.934404-13.732283q4.676839-7.279602 17.175522-13.664504z m30.880694 80.129842a23.397751 23.397751 0 0 0 9.272342-7.618503 17.446643 17.446643 0 0 0 2.88744-9.272341 28.101703 28.101703 0 0 0-1.952072-10.519499 108.448442 108.448442 0 0 0-5.097077-11.454867 100.382589 100.382589 0 0 0-6.628911-11.210858 29.891102 29.891102 0 0 0-7.523611-7.767619 17.14841 17.14841 0 0 0-9.082557-3.023001 23.546868 23.546868 0 0 0-11.481979 3.117893 28.630389 28.630389 0 0 0-9.706135 7.428718 18.368455 18.368455 0 0 0-3.863476 9.109669 26.312303 26.312303 0 0 0 1.165821 10.926181 79.574044 79.574044 0 0 0 5.422422 12.824028 75.236107 75.236107 0 0 0 7.062705 11.414199 26.08185 26.08185 0 0 0 8.133633 7.238933 19.181818 19.181818 0 0 0 9.706136 2.277418 27.789913 27.789913 0 0 0 11.685319-3.470351zM627.292934 399.323417a99.569226 99.569226 0 0 1 21.079666-8.364086 40.464825 40.464825 0 0 1 16.063926-1.084484 23.763765 23.763765 0 0 1 11.902216 5.517314 38.363636 38.363636 0 0 1 8.7301 11.631096l32.385416 63.171217-22.814841 11.68532-7.90318-9.38079q-0.393126 6.588243-6.249342 14.179634t-17.622872 13.623835q-15.982589 8.133633-27.722133 5.571539t-18.978477-16.809509q-8.133633-15.860585-1.504722-27.369675t25.756505-21.310119l23.519756-12.051333-1.220045-2.358754a29.701317 29.701317 0 0 0-4.337938-6.520462 9.611243 9.611243 0 0 0-5.422422-3.063669 16.972181 16.972181 0 0 0-7.482943 0.528686 55.972952 55.972952 0 0 0-10.614391 4.36505c-3.389014 1.748731-6.710247 3.619467-9.9637 5.639319s-6.35779 4.148153-9.340123 6.398458l-10.655059-20.781433q5.097077-3.456794 11.23797-7.035592t11.156633-6.181562z m32.466753 78.896242a38.485641 38.485641 0 0 0 13.393382-10.600835 20.198522 20.198522 0 0 0 4.663283-12.092001l-5.422422-10.641504-19.642724 10.072149q-9.489239 4.853068-12.471571 9.17745t0.542242 11.224413c1.85718 3.605911 4.243045 5.612207 7.18471 6.018889s6.778028-0.637135 11.7531-3.158561zM763.409285 447.90832q-8.228526 4.229489-16.348602 7.428718a144.792226 144.792226 0 0 1-15.115002 5.083521l-10.478831-20.442532a114.304658 114.304658 0 0 0 16.077482-4.297269 110.34629 110.34629 0 0 0 14.681208-6.140893q8.255638-4.229489 11.075297-8.011629c1.870736-2.534982 1.897848-5.598651 0-9.204562a14.681208 14.681208 0 0 0-3.036557-4.202377 7.632059 7.632059 0 0 0-4.365049-1.802955 24.400899 24.400899 0 0 0-6.778028 0.37957q-4.066817 0.718471-10.560167 2.318085a80.970318 80.970318 0 0 1-14.396531 2.589207 25.756505 25.756505 0 0 1-10.316158-1.111597 17.812657 17.812657 0 0 1-7.510054-5.110633 46.171924 46.171924 0 0 1-6.113781-9.353678 34.635721 34.635721 0 0 1-3.863476-12.512239 22.137038 22.137038 0 0 1 2.209637-11.902216 36.994475 36.994475 0 0 1 9.028333-11.346419 79.89939 79.89939 0 0 1 16.592611-10.844844 140.982975 140.982975 0 0 1 15.440347-6.778028 60.568455 60.568455 0 0 1 12.092002-3.429682l8.55387 19.290267c-1.464054 0.311789-3.226341 0.759139-5.300417 1.355606s-4.283713 1.233601-6.615355 2.006296-4.703951 1.626727-7.103373 2.562094-4.649727 1.965628-6.778028 3.036557q-8.784324 4.514166-10.844844 7.930292t0.311789 8.133633a9.746804 9.746804 0 0 0 2.426534 3.239897 6.032445 6.032445 0 0 0 3.755028 1.057373 35.164407 35.164407 0 0 0 6.398458-0.718471c2.629875-0.488018 6.032445-1.247157 10.248377-2.263862a83.518856 83.518856 0 0 1 14.911661-2.426533 28.643945 28.643945 0 0 1 10.844844 1.260713 18.978477 18.978477 0 0 1 8.011629 5.490202 48.991584 48.991584 0 0 1 6.642467 10.139929 35.245744 35.245744 0 0 1 4.337938 14.911661 25.024478 25.024478 0 0 1-2.995888 12.742692 37.618053 37.618053 0 0 1-9.570575 11.061741 89.469965 89.469965 0 0 1-15.548796 9.882365zM842.725765 407.25371q-8.255638 4.229489-16.362159 7.428718a143.694186 143.694186 0 0 1-15.115002 5.083521l-10.478831-20.442532a119.632188 119.632188 0 0 0 30.772246-10.438162q8.242082-4.215933 11.061741-8.011629t0-9.191005a14.450755 14.450755 0 0 0-3.050112-4.202377 7.604947 7.604947 0 0 0-4.351494-1.816512 24.400899 24.400899 0 0 0-6.778028 0.37957c-2.711211 0.474462-6.235785 1.247157-10.546611 2.318085a81.092323 81.092323 0 0 1-14.410087 2.589207 25.756505 25.756505 0 0 1-10.316158-1.111597 17.622872 17.622872 0 0 1-7.496498-5.110633 45.290781 45.290781 0 0 1-6.113781-9.340122 34.81195 34.81195 0 0 1-3.877032-12.525795 22.286155 22.286155 0 0 1 2.209637-11.902216 36.994475 36.994475 0 0 1 9.028333-11.346418 80.441632 80.441632 0 0 1 16.592612-10.844845 144.751558 144.751558 0 0 1 15.440347-6.845808 60.812464 60.812464 0 0 1 12.092001-3.429682l8.553871 19.290267c-1.464054 0.325345-3.226341 0.772695-5.300418 1.355606s-4.283713 1.233601-6.615355 2.006296-4.703951 1.626727-7.103373 2.57565-4.649727 1.952072-6.778027 3.036557q-8.784324 4.50061-10.844845 7.930292c-1.355606 2.277417-1.355606 5.002184 0.298234 8.133633a9.69258 9.69258 0 0 0 2.440089 3.226341 5.97822 5.97822 0 0 0 3.755028 1.057373 33.985031 33.985031 0 0 0 6.384902-0.718471q3.944812-0.732027 10.248378-2.263862a83.518856 83.518856 0 0 1 14.91166-2.426533 28.318599 28.318599 0 0 1 10.844845 1.274269 18.815805 18.815805 0 0 1 8.025184 5.422422 49.357597 49.357597 0 0 1 6.628911 10.139929 35.110183 35.110183 0 0 1 4.337938 14.911661 24.997366 24.997366 0 0 1-2.995888 12.729136 37.618053 37.618053 0 0 1-9.557019 11.183745 89.822422 89.822422 0 0 1-15.535239 9.895921z" fill="#f35155" p-id="5710"></path></svg>