<svg t="1774362483456" class="icon" viewBox="0 0 1024 1024" version="1.1" xmlns="http://www.w3.org/2000/svg" p-id="15963" width="200" height="200"><path d="M362.9 184.9c-164.7 0-298.7 134-298.7 298.7s134 298.7 298.7 298.7 298.7-134 298.7-298.7-134-298.7-298.7-298.7z m272.8 225.3l-23.2-12.5c-8.9-53.8-42.2-100.9-65.5-128.2 42.3 36.4 73.7 85.2 88.7 140.7zM500.5 631.3l-98-26.4-19.2-86.3 71.5-80 100.6 30.7 16.8 101.9-71.7 60.1z m-198.3 56.3l-116.6-62.3 2-96.8 79.7-51.2 100.1 44.5 19 85.3-84.2 80.5zM110.6 463c-0.6-22.3 2.5-84.1 47.5-153.2l55.9-12.6 56.2 54L258 464.1 182 513l-71.4-50z m450.1-9.1l-97.5-29.7-58.6-102.8 35.8-67.2L514 258c11 10.6 70.9 71.4 82.5 142.5l-35.8 53.4zM391.8 202.6l34 44.5-36.3 68.1L280.9 339l-53.2-51.1 15.9-60.3c36.3-17 76.7-26.5 119.4-26.5 9.6 0 19.3 0.5 28.8 1.5zM134.1 318.1c-45.7 79.9-40 146.5-39 155l-14.2 26.8c-0.3-5.4-0.5-10.8-0.5-16.3 0-61.8 19.9-118.9 53.7-165.5z m-1.6 328.8l35.8-12.4L308 709.1l0.5-0.9 41.8 39.4-6.8 17.8c-86.9-5.9-163.2-51.3-211-118.5zM360.7 766l6.1-16c22.3-4.3 72.9-15.1 114.5-30.2l14.6 12.8c-39.7 21.3-85 33.3-133 33.3-0.7 0.2-1.5 0.1-2.2 0.1z m150-41.8L494 709.5l11.2-60.9 77.4-64.9L622 596c-23.2 53.2-62.3 98-111.3 128.2zM957 804.4c-1.5 1.5-3.6 2.5-5.9 2.7l-74.8 6c-5.2 0.4-9.7-3.5-10.2-8.6-0.4-5.2 3.5-9.7 8.6-10.2l74.8-6c5.2-0.4 9.7 3.5 10.2 8.6 0.3 3-0.8 5.6-2.7 7.5zM840 813.8c-1.5 1.5-3.6 2.5-5.9 2.7L552.8 839c-5.2 0.4-9.7-3.5-10.2-8.6-0.4-5.2 3.5-9.7 8.6-10.2l281.3-22.5c5.2-0.4 9.7 3.5 10.2 8.6 0.3 3-0.8 5.6-2.7 7.5zM902.4 730.2c-1.6 1.6-3.7 2.6-6 2.7l-211 14.4c-5.2 0.4-9.7-3.6-10.1-8.8-0.4-5.2 3.6-9.7 8.8-10.1l211-14.4c5.2-0.4 9.7 3.6 10.1 8.8 0.1 2.9-0.9 5.5-2.8 7.4z" fill="" p-id="15964"></path><path d="M806.2 688.3c-1.5 1.5-3.6 2.5-5.9 2.7l-74.8 6c-5.2 0.4-9.7-3.5-10.2-8.6-0.4-5.2 3.5-9.7 8.6-10.2l74.8-6c5.2-0.4 9.7 3.5 10.2 8.6 0.2 3-0.9 5.6-2.7 7.5z" fill="" p-id="15965"></path></svg>