<svg t="1774362557227" class="icon" viewBox="0 0 1024 1024" version="1.1" xmlns="http://www.w3.org/2000/svg" p-id="19860" width="200" height="200"><path d="M511.9 63.9c-247.8 0-448.6 200.9-448.6 448.6s200.9 448.6 448.6 448.6c247.8 0 448.6-200.9 448.6-448.6S759.7 63.9 511.9 63.9z m212.9 423.7L676.2 535c-5.1 5-27.2 29.1-38.7 37.8 0.2 3.6 0.5 7.5 1.3 10.7 3.5 12.7 4.7 27.4 6.9 40.4 3.8 22.3 7.7 44.6 11.5 66.9 3.8 22.3-17 40.8-38.4 29.5-20-10.5-40.1-21.1-60.1-31.6-11.8-6.2-25.2-11.5-36.3-19.1-2.4-1.6-6.6-3.4-10.6-5-4 1.6-8.2 3.3-10.6 5-10.7 7.4-24.8 13-36.3 19.1-20 10.5-40.1 21.1-60.1 31.6-21.3 11.2-42.2-7.2-38.4-29.5 3.8-22.3 7.7-44.6 11.5-66.9 2.3-13.2 3.3-27.4 6.9-40.4 0.9-3.2 1.2-7.1 1.3-10.7-11.1-8.5-32.5-31.7-38.7-37.7l-48.6-47.4c-12.8-12.5-8.5-40.8 11.5-43.7 22.4-3.3 44.8-6.5 67.2-9.8 8.4-1.2 44.6-8 56.6-7.6 3.2-11 20.3-41.4 25-51l30-60.9c5.2-10.5 13.9-14 22.6-13.1 8.6-0.9 17.4 2.6 22.5 13.1l30 60.9c4.1 8.3 21.8 39.9 25 51 11.7-0.4 46.6 6.1 56.6 7.6 22.4 3.3 44.8 6.5 67.2 9.8 20.3 2.9 24.6 31.1 11.8 43.6z" fill="#EFBD32" p-id="19861"></path></svg>