<svg t="1774450047167" class="icon" viewBox="0 0 1024 1024" version="1.1" xmlns="http://www.w3.org/2000/svg" p-id="50040" width="200" height="200"><path d="M835.285333 896h-44.330666s0-88.618667-96-192c25.856 62.762667 40.618667 140.288 44.330666 192H617.386667c-14.762667-29.525333-33.237333-62.762667-66.474667-96 11.093333 29.525333 22.186667 62.762667 29.568 96h-406.186667C170.666667 881.237333 170.666667 862.762667 170.666667 848c0-121.856 66.474667-228.906667 166.144-288h339.712c99.669333 59.093333 166.144 162.474667 166.144 288 0 14.762667-3.712 29.525333-7.381334 48z m-232.618666-384h-192c-25.856 0-48-22.186667-48-48V416c0-25.856 22.186667-48 48-48h48v-192c0-25.856 22.186667-48 48-48C532.522667 128 554.666667 150.186667 554.666667 176v192h48c25.856 0 48 22.186667 48 48v48c0 25.856-22.186667 48-48 48z" fill="#333333" p-id="50041"></path></svg>