<svg t="1774450126621" class="icon" viewBox="0 0 1024 1024" version="1.1" xmlns="http://www.w3.org/2000/svg" p-id="52924" width="200" height="200"><path d="M426.688 48a42.688 42.688 0 0 0 0 85.312h42.624v12.8A416 416 0 0 0 170.88 798.208l-73.024 72.96a42.688 42.688 0 0 0 60.288 60.416l68.672-68.672A414.528 414.528 0 0 0 512 976a414.592 414.592 0 0 0 285.184-113.152l68.672 68.672a42.688 42.688 0 1 0 60.288-60.352l-72.96-73.024A416 416 0 0 0 554.624 146.176v-12.8h42.624a42.688 42.688 0 1 0 0-85.376H426.688z m128 362.688v152.96l72.832 72.832a42.688 42.688 0 1 1-60.352 60.352L481.856 611.52a42.688 42.688 0 0 1-12.544-30.208V410.688a42.688 42.688 0 1 1 85.376 0z" fill="#333333" p-id="52925"></path><path d="M139.2 91.648c26.048-4.16 49.344 5.888 67.84 15.104l25.344 12.736a42.688 42.688 0 0 1-38.144 76.288l-25.408-12.672a96.512 96.512 0 0 0-15.808-6.72h-0.32c-2.56 1.728-6.464 4.992-12.928 11.456-6.4 6.4-9.664 10.368-11.328 12.864l-0.128 0.128v0.192c0.896 2.944 2.688 7.68 6.784 15.808l12.672 25.408a42.688 42.688 0 1 1-76.288 38.144l-12.736-25.408C49.536 236.544 39.424 213.312 43.648 187.264c4.16-26.112 21.12-45.056 35.84-59.776 14.72-14.72 33.664-31.616 59.712-35.84zM855.168 183.04c8.064-3.968 12.864-5.824 15.808-6.656h0.32c2.496 1.728 6.464 4.992 12.864 11.456 6.4 6.4 9.728 10.368 11.392 12.864l0.128 0.128-0.064 0.192c-0.832 2.944-2.688 7.68-6.72 15.808l-12.672 25.408a42.688 42.688 0 1 0 76.288 38.144l12.736-25.408c9.216-18.432 19.264-41.664 15.104-67.712-4.224-26.112-21.12-45.056-35.84-59.776-14.72-14.72-33.664-31.616-59.776-35.84-26.048-4.16-49.28 5.888-67.776 15.104l-25.408 12.736a42.688 42.688 0 1 0 38.208 76.288l25.408-12.672z" fill="#333333" p-id="52926"></path></svg>