<svg t="1774449957152" class="icon" viewBox="0 0 1024 1024" version="1.1" xmlns="http://www.w3.org/2000/svg" p-id="46969" width="200" height="200"><path d="M154.368 219.428571v493.714286c0.731429 39.387429 31.670857 70.802286 69.376 70.509714h206.299429c9.581714 28.16 35.108571 46.957714 63.670857 46.957715 28.598857 0 54.089143-18.797714 63.634285-46.957715h205.970286c37.705143 0.292571 68.644571-31.122286 69.376-70.509714V219.428571h22.564572c12.397714 0 22.454857 10.496 22.454857 23.478858v564.297142c0 6.217143-2.377143 12.214857-6.582857 16.603429a21.979429 21.979429 0 0 1-15.872 6.875429H602.331429c-9.545143 28.16-35.035429 46.994286-63.634286 47.030857h-90.038857c-28.598857-0.036571-54.089143-18.870857-63.634286-47.030857H132.169143a21.979429 21.979429 0 0 1-15.872-6.875429 24.027429 24.027429 0 0 1-6.582857-16.603429V242.907429C109.714286 229.924571 119.771429 219.428571 132.169143 219.428571h22.198857z m626.870857-27.428571c6.217143 0 12.105143 2.413714 16.493714 6.729143s6.838857 10.166857 6.838858 16.274286v507.355428a23.222857 23.222857 0 0 1-23.332572 23.076572H548.571429a23.222857 23.222857 0 0 0-23.332572 22.564571V215.625143a116.114286 116.114286 0 0 1 69.888-23.588572zM226.523429 182.857143v434.468571c0.182857 37.778286 29.366857 68.278857 65.426285 68.388572 66.084571 0 98.157714 30.134857 110.336 45.714285H204.726857A22.418286 22.418286 0 0 1 182.857143 708.534857V205.677714a23.405714 23.405714 0 0 1 6.4-16.164571A21.284571 21.284571 0 0 1 204.726857 182.857143h21.796572z m89.270857-36.571429c79.030857 0 130.706286 26.624 162.998857 53.284572v528.091428c-10.422857-15.872-55.259429-74.825143-162.998857-74.605714a23.332571 23.332571 0 0 1-16.457143-6.729143 22.893714 22.893714 0 0 1-6.765714-16.310857V169.289143c0-6.107429 2.450286-11.958857 6.802285-16.274286A23.369143 23.369143 0 0 1 315.830857 146.285714z" p-id="46970"></path></svg>